<mxfile host="Electron" agent="Mozilla/5.0 (Windows NT 10.0; Win64; x64) AppleWebKit/537.36 (KHTML, like Gecko) draw.io/28.0.4 Chrome/138.0.7204.97 Electron/37.2.1 Safari/537.36" version="28.0.4" pages="8">
  <diagram id="C5RBs43oDa-KdzZeNtuy" name="example">
    <mxGraphModel dx="1042" dy="626" grid="1" gridSize="10" guides="1" tooltips="1" connect="1" arrows="1" fold="1" page="1" pageScale="1" pageWidth="827" pageHeight="1169" math="0" shadow="0">
      <root>
        <mxCell id="WIyWlLk6GJQsqaUBKTNV-0" />
        <mxCell id="WIyWlLk6GJQsqaUBKTNV-1" parent="WIyWlLk6GJQsqaUBKTNV-0" />
        <mxCell id="WIyWlLk6GJQsqaUBKTNV-2" value="" style="rounded=0;html=1;jettySize=auto;orthogonalLoop=1;fontSize=11;endArrow=block;endFill=0;endSize=8;strokeWidth=1;shadow=0;labelBackgroundColor=none;edgeStyle=orthogonalEdgeStyle;" parent="WIyWlLk6GJQsqaUBKTNV-1" source="WIyWlLk6GJQsqaUBKTNV-3" target="WIyWlLk6GJQsqaUBKTNV-6" edge="1">
          <mxGeometry relative="1" as="geometry" />
        </mxCell>
        <mxCell id="WIyWlLk6GJQsqaUBKTNV-3" value="Lamp doesn&#39;t work" style="rounded=1;whiteSpace=wrap;html=1;fontSize=12;glass=0;strokeWidth=1;shadow=0;" parent="WIyWlLk6GJQsqaUBKTNV-1" vertex="1">
          <mxGeometry x="160" y="80" width="120" height="40" as="geometry" />
        </mxCell>
        <mxCell id="WIyWlLk6GJQsqaUBKTNV-4" value="Yes" style="rounded=0;html=1;jettySize=auto;orthogonalLoop=1;fontSize=11;endArrow=block;endFill=0;endSize=8;strokeWidth=1;shadow=0;labelBackgroundColor=none;edgeStyle=orthogonalEdgeStyle;" parent="WIyWlLk6GJQsqaUBKTNV-1" source="WIyWlLk6GJQsqaUBKTNV-6" target="WIyWlLk6GJQsqaUBKTNV-10" edge="1">
          <mxGeometry y="20" relative="1" as="geometry">
            <mxPoint as="offset" />
          </mxGeometry>
        </mxCell>
        <mxCell id="WIyWlLk6GJQsqaUBKTNV-5" value="No" style="edgeStyle=orthogonalEdgeStyle;rounded=0;html=1;jettySize=auto;orthogonalLoop=1;fontSize=11;endArrow=block;endFill=0;endSize=8;strokeWidth=1;shadow=0;labelBackgroundColor=none;" parent="WIyWlLk6GJQsqaUBKTNV-1" source="WIyWlLk6GJQsqaUBKTNV-6" target="WIyWlLk6GJQsqaUBKTNV-7" edge="1">
          <mxGeometry y="10" relative="1" as="geometry">
            <mxPoint as="offset" />
          </mxGeometry>
        </mxCell>
        <mxCell id="WIyWlLk6GJQsqaUBKTNV-6" value="Lamp&lt;br&gt;plugged in?" style="rhombus;whiteSpace=wrap;html=1;shadow=0;fontFamily=Helvetica;fontSize=12;align=center;strokeWidth=1;spacing=6;spacingTop=-4;" parent="WIyWlLk6GJQsqaUBKTNV-1" vertex="1">
          <mxGeometry x="170" y="170" width="100" height="80" as="geometry" />
        </mxCell>
        <mxCell id="WIyWlLk6GJQsqaUBKTNV-7" value="Plug in lamp" style="rounded=1;whiteSpace=wrap;html=1;fontSize=12;glass=0;strokeWidth=1;shadow=0;" parent="WIyWlLk6GJQsqaUBKTNV-1" vertex="1">
          <mxGeometry x="320" y="190" width="120" height="40" as="geometry" />
        </mxCell>
        <mxCell id="WIyWlLk6GJQsqaUBKTNV-8" value="No" style="rounded=0;html=1;jettySize=auto;orthogonalLoop=1;fontSize=11;endArrow=block;endFill=0;endSize=8;strokeWidth=1;shadow=0;labelBackgroundColor=none;edgeStyle=orthogonalEdgeStyle;" parent="WIyWlLk6GJQsqaUBKTNV-1" source="WIyWlLk6GJQsqaUBKTNV-10" target="WIyWlLk6GJQsqaUBKTNV-11" edge="1">
          <mxGeometry x="0.3333" y="20" relative="1" as="geometry">
            <mxPoint as="offset" />
          </mxGeometry>
        </mxCell>
        <mxCell id="WIyWlLk6GJQsqaUBKTNV-9" value="Yes" style="edgeStyle=orthogonalEdgeStyle;rounded=0;html=1;jettySize=auto;orthogonalLoop=1;fontSize=11;endArrow=block;endFill=0;endSize=8;strokeWidth=1;shadow=0;labelBackgroundColor=none;" parent="WIyWlLk6GJQsqaUBKTNV-1" source="WIyWlLk6GJQsqaUBKTNV-10" target="WIyWlLk6GJQsqaUBKTNV-12" edge="1">
          <mxGeometry y="10" relative="1" as="geometry">
            <mxPoint as="offset" />
          </mxGeometry>
        </mxCell>
        <mxCell id="WIyWlLk6GJQsqaUBKTNV-10" value="Bulb&lt;br&gt;burned out?" style="rhombus;whiteSpace=wrap;html=1;shadow=0;fontFamily=Helvetica;fontSize=12;align=center;strokeWidth=1;spacing=6;spacingTop=-4;" parent="WIyWlLk6GJQsqaUBKTNV-1" vertex="1">
          <mxGeometry x="170" y="290" width="100" height="80" as="geometry" />
        </mxCell>
        <mxCell id="WIyWlLk6GJQsqaUBKTNV-11" value="Repair Lamp" style="rounded=1;whiteSpace=wrap;html=1;fontSize=12;glass=0;strokeWidth=1;shadow=0;" parent="WIyWlLk6GJQsqaUBKTNV-1" vertex="1">
          <mxGeometry x="160" y="430" width="120" height="40" as="geometry" />
        </mxCell>
        <mxCell id="WIyWlLk6GJQsqaUBKTNV-12" value="Replace Bulb" style="rounded=1;whiteSpace=wrap;html=1;fontSize=12;glass=0;strokeWidth=1;shadow=0;" parent="WIyWlLk6GJQsqaUBKTNV-1" vertex="1">
          <mxGeometry x="320" y="310" width="120" height="40" as="geometry" />
        </mxCell>
      </root>
    </mxGraphModel>
  </diagram>
  <diagram id="ZO4Gd4MtoufL7PhknDgu" name="login">
    <mxGraphModel dx="1042" dy="626" grid="1" gridSize="10" guides="1" tooltips="1" connect="1" arrows="1" fold="1" page="1" pageScale="1" pageWidth="850" pageHeight="1100" math="0" shadow="0">
      <root>
        <mxCell id="0" />
        <mxCell id="1" parent="0" />
        <mxCell id="86U95aASKmhx8T6AFwN7-3" value="Frontend" style="swimlane;whiteSpace=wrap;html=1;" parent="1" vertex="1">
          <mxGeometry x="200" y="40" width="350" height="720" as="geometry">
            <mxRectangle x="200" y="40" width="90" height="30" as="alternateBounds" />
          </mxGeometry>
        </mxCell>
        <mxCell id="86U95aASKmhx8T6AFwN7-22" value="no" style="edgeStyle=orthogonalEdgeStyle;rounded=0;orthogonalLoop=1;jettySize=auto;html=1;" parent="86U95aASKmhx8T6AFwN7-3" source="86U95aASKmhx8T6AFwN7-17" target="86U95aASKmhx8T6AFwN7-18" edge="1">
          <mxGeometry x="0.2" y="10" relative="1" as="geometry">
            <mxPoint as="offset" />
          </mxGeometry>
        </mxCell>
        <mxCell id="86U95aASKmhx8T6AFwN7-23" value="yes" style="edgeStyle=orthogonalEdgeStyle;rounded=0;orthogonalLoop=1;jettySize=auto;html=1;" parent="86U95aASKmhx8T6AFwN7-3" source="86U95aASKmhx8T6AFwN7-17" target="86U95aASKmhx8T6AFwN7-19" edge="1">
          <mxGeometry x="-0.1429" y="10" relative="1" as="geometry">
            <mxPoint as="offset" />
          </mxGeometry>
        </mxCell>
        <mxCell id="86U95aASKmhx8T6AFwN7-17" value="have&lt;div&gt;account&lt;/div&gt;" style="rhombus;whiteSpace=wrap;html=1;" parent="86U95aASKmhx8T6AFwN7-3" vertex="1">
          <mxGeometry x="40" y="160" width="80" height="80" as="geometry" />
        </mxCell>
        <mxCell id="86U95aASKmhx8T6AFwN7-26" value="" style="edgeStyle=orthogonalEdgeStyle;rounded=0;orthogonalLoop=1;jettySize=auto;html=1;" parent="86U95aASKmhx8T6AFwN7-3" source="86U95aASKmhx8T6AFwN7-18" target="86U95aASKmhx8T6AFwN7-24" edge="1">
          <mxGeometry relative="1" as="geometry" />
        </mxCell>
        <mxCell id="86U95aASKmhx8T6AFwN7-18" value="push register button" style="rounded=1;whiteSpace=wrap;html=1;" parent="86U95aASKmhx8T6AFwN7-3" vertex="1">
          <mxGeometry x="20" y="270" width="120" height="60" as="geometry" />
        </mxCell>
        <mxCell id="Mvb_f3qtAEwJDjN7abNm-5" value="" style="edgeStyle=orthogonalEdgeStyle;rounded=0;orthogonalLoop=1;jettySize=auto;html=1;" parent="86U95aASKmhx8T6AFwN7-3" source="86U95aASKmhx8T6AFwN7-19" target="Mvb_f3qtAEwJDjN7abNm-3" edge="1">
          <mxGeometry relative="1" as="geometry" />
        </mxCell>
        <mxCell id="86U95aASKmhx8T6AFwN7-19" value="input username password" style="rounded=1;whiteSpace=wrap;html=1;" parent="86U95aASKmhx8T6AFwN7-3" vertex="1">
          <mxGeometry x="190" y="170" width="120" height="60" as="geometry" />
        </mxCell>
        <mxCell id="86U95aASKmhx8T6AFwN7-20" value="" style="endArrow=classic;html=1;rounded=0;" parent="86U95aASKmhx8T6AFwN7-3" source="86U95aASKmhx8T6AFwN7-21" target="86U95aASKmhx8T6AFwN7-17" edge="1">
          <mxGeometry width="50" height="50" relative="1" as="geometry">
            <mxPoint x="80" y="140" as="sourcePoint" />
            <mxPoint x="530" y="310" as="targetPoint" />
          </mxGeometry>
        </mxCell>
        <mxCell id="86U95aASKmhx8T6AFwN7-21" value="start" style="ellipse;whiteSpace=wrap;html=1;aspect=fixed;" parent="86U95aASKmhx8T6AFwN7-3" vertex="1">
          <mxGeometry x="40" y="50" width="80" height="80" as="geometry" />
        </mxCell>
        <mxCell id="86U95aASKmhx8T6AFwN7-27" value="" style="edgeStyle=orthogonalEdgeStyle;rounded=0;orthogonalLoop=1;jettySize=auto;html=1;" parent="86U95aASKmhx8T6AFwN7-3" source="86U95aASKmhx8T6AFwN7-24" target="86U95aASKmhx8T6AFwN7-25" edge="1">
          <mxGeometry relative="1" as="geometry" />
        </mxCell>
        <mxCell id="86U95aASKmhx8T6AFwN7-24" value="redirect to register page" style="rounded=1;whiteSpace=wrap;html=1;" parent="86U95aASKmhx8T6AFwN7-3" vertex="1">
          <mxGeometry x="20" y="360" width="120" height="60" as="geometry" />
        </mxCell>
        <mxCell id="86U95aASKmhx8T6AFwN7-25" value="R1" style="ellipse;whiteSpace=wrap;html=1;aspect=fixed;strokeColor=default;strokeWidth=10;" parent="86U95aASKmhx8T6AFwN7-3" vertex="1">
          <mxGeometry x="40" y="450" width="80" height="80" as="geometry" />
        </mxCell>
        <mxCell id="Mvb_f3qtAEwJDjN7abNm-3" value="sent payload to backend" style="rounded=1;whiteSpace=wrap;html=1;" parent="86U95aASKmhx8T6AFwN7-3" vertex="1">
          <mxGeometry x="190" y="60" width="120" height="60" as="geometry" />
        </mxCell>
        <mxCell id="Mvb_f3qtAEwJDjN7abNm-30" value="" style="edgeStyle=orthogonalEdgeStyle;rounded=0;orthogonalLoop=1;jettySize=auto;html=1;" parent="86U95aASKmhx8T6AFwN7-3" source="Mvb_f3qtAEwJDjN7abNm-27" target="Mvb_f3qtAEwJDjN7abNm-28" edge="1">
          <mxGeometry relative="1" as="geometry" />
        </mxCell>
        <mxCell id="Mvb_f3qtAEwJDjN7abNm-27" value="show dialog username or password is wrong" style="rounded=1;whiteSpace=wrap;html=1;" parent="86U95aASKmhx8T6AFwN7-3" vertex="1">
          <mxGeometry x="190" y="270" width="120" height="60" as="geometry" />
        </mxCell>
        <mxCell id="Mvb_f3qtAEwJDjN7abNm-40" style="edgeStyle=orthogonalEdgeStyle;rounded=0;orthogonalLoop=1;jettySize=auto;html=1;" parent="86U95aASKmhx8T6AFwN7-3" source="Mvb_f3qtAEwJDjN7abNm-28" target="Mvb_f3qtAEwJDjN7abNm-39" edge="1">
          <mxGeometry relative="1" as="geometry" />
        </mxCell>
        <mxCell id="Mvb_f3qtAEwJDjN7abNm-28" value="clear login form" style="rounded=1;whiteSpace=wrap;html=1;" parent="86U95aASKmhx8T6AFwN7-3" vertex="1">
          <mxGeometry x="190" y="360" width="120" height="60" as="geometry" />
        </mxCell>
        <mxCell id="Mvb_f3qtAEwJDjN7abNm-37" value="" style="edgeStyle=orthogonalEdgeStyle;rounded=0;orthogonalLoop=1;jettySize=auto;html=1;" parent="86U95aASKmhx8T6AFwN7-3" source="Mvb_f3qtAEwJDjN7abNm-31" target="Mvb_f3qtAEwJDjN7abNm-35" edge="1">
          <mxGeometry relative="1" as="geometry" />
        </mxCell>
        <mxCell id="Mvb_f3qtAEwJDjN7abNm-31" value="set JWT Bearer token to cookie" style="rounded=1;whiteSpace=wrap;html=1;" parent="86U95aASKmhx8T6AFwN7-3" vertex="1">
          <mxGeometry x="190" y="480" width="120" height="60" as="geometry" />
        </mxCell>
        <mxCell id="Mvb_f3qtAEwJDjN7abNm-35" value="H1" style="ellipse;whiteSpace=wrap;html=1;aspect=fixed;strokeWidth=10;" parent="86U95aASKmhx8T6AFwN7-3" vertex="1">
          <mxGeometry x="210" y="580" width="80" height="80" as="geometry" />
        </mxCell>
        <mxCell id="Mvb_f3qtAEwJDjN7abNm-36" value="R = Register page&lt;div&gt;H = Home page&lt;/div&gt;" style="text;html=1;align=center;verticalAlign=middle;whiteSpace=wrap;rounded=0;" parent="86U95aASKmhx8T6AFwN7-3" vertex="1">
          <mxGeometry x="30" y="605" width="110" height="30" as="geometry" />
        </mxCell>
        <mxCell id="Mvb_f3qtAEwJDjN7abNm-41" value="" style="edgeStyle=orthogonalEdgeStyle;rounded=0;orthogonalLoop=1;jettySize=auto;html=1;" parent="86U95aASKmhx8T6AFwN7-3" source="Mvb_f3qtAEwJDjN7abNm-39" target="86U95aASKmhx8T6AFwN7-18" edge="1">
          <mxGeometry relative="1" as="geometry" />
        </mxCell>
        <mxCell id="Mvb_f3qtAEwJDjN7abNm-42" style="edgeStyle=orthogonalEdgeStyle;rounded=0;orthogonalLoop=1;jettySize=auto;html=1;" parent="86U95aASKmhx8T6AFwN7-3" source="Mvb_f3qtAEwJDjN7abNm-39" target="86U95aASKmhx8T6AFwN7-19" edge="1">
          <mxGeometry relative="1" as="geometry">
            <Array as="points">
              <mxPoint x="170" y="220" />
            </Array>
          </mxGeometry>
        </mxCell>
        <mxCell id="Mvb_f3qtAEwJDjN7abNm-39" value="" style="ellipse;whiteSpace=wrap;html=1;aspect=fixed;fillColor=#000000;" parent="86U95aASKmhx8T6AFwN7-3" vertex="1">
          <mxGeometry x="160" y="290" width="20" height="20" as="geometry" />
        </mxCell>
        <mxCell id="86U95aASKmhx8T6AFwN7-7" value="Backend" style="swimlane;whiteSpace=wrap;html=1;" parent="1" vertex="1">
          <mxGeometry x="550" y="40" width="350" height="720" as="geometry" />
        </mxCell>
        <mxCell id="Mvb_f3qtAEwJDjN7abNm-1" value="validate data" style="rounded=1;whiteSpace=wrap;html=1;" parent="86U95aASKmhx8T6AFwN7-7" vertex="1">
          <mxGeometry x="40" y="170" width="120" height="60" as="geometry" />
        </mxCell>
        <mxCell id="Mvb_f3qtAEwJDjN7abNm-8" value="add salt to password" style="rounded=1;whiteSpace=wrap;html=1;" parent="86U95aASKmhx8T6AFwN7-7" vertex="1">
          <mxGeometry x="60" y="270" width="120" height="60" as="geometry" />
        </mxCell>
        <mxCell id="Mvb_f3qtAEwJDjN7abNm-9" value="hash password" style="rounded=1;whiteSpace=wrap;html=1;" parent="86U95aASKmhx8T6AFwN7-7" vertex="1">
          <mxGeometry x="200" y="170" width="120" height="60" as="geometry" />
        </mxCell>
        <mxCell id="Mvb_f3qtAEwJDjN7abNm-10" value="" style="endArrow=classic;html=1;rounded=0;" parent="86U95aASKmhx8T6AFwN7-7" source="Mvb_f3qtAEwJDjN7abNm-1" target="Mvb_f3qtAEwJDjN7abNm-8" edge="1">
          <mxGeometry width="50" height="50" relative="1" as="geometry">
            <mxPoint x="100" y="320" as="sourcePoint" />
            <mxPoint x="150" y="270" as="targetPoint" />
          </mxGeometry>
        </mxCell>
        <mxCell id="Mvb_f3qtAEwJDjN7abNm-11" value="" style="endArrow=classic;html=1;rounded=0;" parent="86U95aASKmhx8T6AFwN7-7" source="Mvb_f3qtAEwJDjN7abNm-8" target="Mvb_f3qtAEwJDjN7abNm-9" edge="1">
          <mxGeometry width="50" height="50" relative="1" as="geometry">
            <mxPoint x="100" y="320" as="sourcePoint" />
            <mxPoint x="150" y="270" as="targetPoint" />
          </mxGeometry>
        </mxCell>
        <mxCell id="Mvb_f3qtAEwJDjN7abNm-12" value="get user from database by username" style="rounded=1;whiteSpace=wrap;html=1;" parent="86U95aASKmhx8T6AFwN7-7" vertex="1">
          <mxGeometry x="200" y="60" width="120" height="60" as="geometry" />
        </mxCell>
        <mxCell id="Mvb_f3qtAEwJDjN7abNm-13" value="" style="endArrow=classic;html=1;rounded=0;" parent="86U95aASKmhx8T6AFwN7-7" source="Mvb_f3qtAEwJDjN7abNm-9" target="Mvb_f3qtAEwJDjN7abNm-12" edge="1">
          <mxGeometry width="50" height="50" relative="1" as="geometry">
            <mxPoint x="100" y="320" as="sourcePoint" />
            <mxPoint x="150" y="270" as="targetPoint" />
          </mxGeometry>
        </mxCell>
        <mxCell id="Mvb_f3qtAEwJDjN7abNm-26" value="" style="edgeStyle=orthogonalEdgeStyle;rounded=0;orthogonalLoop=1;jettySize=auto;html=1;" parent="86U95aASKmhx8T6AFwN7-7" source="Mvb_f3qtAEwJDjN7abNm-18" target="Mvb_f3qtAEwJDjN7abNm-19" edge="1">
          <mxGeometry relative="1" as="geometry" />
        </mxCell>
        <mxCell id="Mvb_f3qtAEwJDjN7abNm-18" value="compair hash password with password in database" style="rounded=1;whiteSpace=wrap;html=1;" parent="86U95aASKmhx8T6AFwN7-7" vertex="1">
          <mxGeometry x="200" y="270" width="120" height="60" as="geometry" />
        </mxCell>
        <mxCell id="Mvb_f3qtAEwJDjN7abNm-19" value="password is match" style="rhombus;whiteSpace=wrap;html=1;" parent="86U95aASKmhx8T6AFwN7-7" vertex="1">
          <mxGeometry x="220" y="360" width="80" height="80" as="geometry" />
        </mxCell>
        <mxCell id="Mvb_f3qtAEwJDjN7abNm-20" value="response login fail" style="rounded=1;whiteSpace=wrap;html=1;" parent="86U95aASKmhx8T6AFwN7-7" vertex="1">
          <mxGeometry x="40" y="370" width="120" height="60" as="geometry" />
        </mxCell>
        <mxCell id="Mvb_f3qtAEwJDjN7abNm-21" value="response JWT Bearer token" style="rounded=1;whiteSpace=wrap;html=1;" parent="86U95aASKmhx8T6AFwN7-7" vertex="1">
          <mxGeometry x="40" y="480" width="120" height="60" as="geometry" />
        </mxCell>
        <mxCell id="Mvb_f3qtAEwJDjN7abNm-22" value="no" style="endArrow=classic;html=1;rounded=0;exitX=0;exitY=0.5;exitDx=0;exitDy=0;edgeStyle=orthogonalEdgeStyle;" parent="86U95aASKmhx8T6AFwN7-7" source="Mvb_f3qtAEwJDjN7abNm-19" target="Mvb_f3qtAEwJDjN7abNm-20" edge="1">
          <mxGeometry width="50" height="50" relative="1" as="geometry">
            <mxPoint x="110" y="370" as="sourcePoint" />
            <mxPoint x="160" y="320" as="targetPoint" />
          </mxGeometry>
        </mxCell>
        <mxCell id="Mvb_f3qtAEwJDjN7abNm-24" value="yes" style="endArrow=classic;html=1;rounded=0;exitX=0.5;exitY=1;exitDx=0;exitDy=0;edgeStyle=orthogonalEdgeStyle;" parent="86U95aASKmhx8T6AFwN7-7" source="Mvb_f3qtAEwJDjN7abNm-19" target="Mvb_f3qtAEwJDjN7abNm-33" edge="1">
          <mxGeometry width="50" height="50" relative="1" as="geometry">
            <mxPoint x="110" y="370" as="sourcePoint" />
            <mxPoint x="160" y="320" as="targetPoint" />
            <Array as="points" />
          </mxGeometry>
        </mxCell>
        <mxCell id="Mvb_f3qtAEwJDjN7abNm-34" value="" style="edgeStyle=orthogonalEdgeStyle;rounded=0;orthogonalLoop=1;jettySize=auto;html=1;" parent="86U95aASKmhx8T6AFwN7-7" source="Mvb_f3qtAEwJDjN7abNm-33" target="Mvb_f3qtAEwJDjN7abNm-21" edge="1">
          <mxGeometry relative="1" as="geometry" />
        </mxCell>
        <mxCell id="Mvb_f3qtAEwJDjN7abNm-33" value="make JWT Bearer include expire time" style="rounded=1;whiteSpace=wrap;html=1;" parent="86U95aASKmhx8T6AFwN7-7" vertex="1">
          <mxGeometry x="200" y="480" width="120" height="60" as="geometry" />
        </mxCell>
        <mxCell id="u3ca_C0zvIhu3rWEf725-2" value="recive username password" style="rounded=1;whiteSpace=wrap;html=1;" parent="86U95aASKmhx8T6AFwN7-7" vertex="1">
          <mxGeometry x="40" y="60" width="120" height="60" as="geometry" />
        </mxCell>
        <mxCell id="Mvb_f3qtAEwJDjN7abNm-6" value="" style="edgeStyle=orthogonalEdgeStyle;rounded=0;orthogonalLoop=1;jettySize=auto;html=1;" parent="86U95aASKmhx8T6AFwN7-7" source="u3ca_C0zvIhu3rWEf725-2" target="Mvb_f3qtAEwJDjN7abNm-1" edge="1">
          <mxGeometry relative="1" as="geometry" />
        </mxCell>
        <mxCell id="86U95aASKmhx8T6AFwN7-9" value="Database" style="swimlane;whiteSpace=wrap;html=1;" parent="1" vertex="1">
          <mxGeometry x="900" y="40" width="170" height="720" as="geometry" />
        </mxCell>
        <mxCell id="Mvb_f3qtAEwJDjN7abNm-14" value="query user by username" style="rounded=1;whiteSpace=wrap;html=1;" parent="86U95aASKmhx8T6AFwN7-9" vertex="1">
          <mxGeometry x="30" y="60" width="120" height="60" as="geometry" />
        </mxCell>
        <mxCell id="Mvb_f3qtAEwJDjN7abNm-16" value="sent user data to backend" style="rounded=1;whiteSpace=wrap;html=1;" parent="86U95aASKmhx8T6AFwN7-9" vertex="1">
          <mxGeometry x="30" y="270" width="120" height="60" as="geometry" />
        </mxCell>
        <mxCell id="Mvb_f3qtAEwJDjN7abNm-17" value="" style="endArrow=classic;html=1;rounded=0;" parent="86U95aASKmhx8T6AFwN7-9" source="Mvb_f3qtAEwJDjN7abNm-14" target="Mvb_f3qtAEwJDjN7abNm-16" edge="1">
          <mxGeometry width="50" height="50" relative="1" as="geometry">
            <mxPoint x="-250" y="370" as="sourcePoint" />
            <mxPoint x="-200" y="320" as="targetPoint" />
          </mxGeometry>
        </mxCell>
        <mxCell id="Mvb_f3qtAEwJDjN7abNm-15" value="" style="endArrow=classic;html=1;rounded=0;" parent="1" source="Mvb_f3qtAEwJDjN7abNm-12" target="Mvb_f3qtAEwJDjN7abNm-14" edge="1">
          <mxGeometry width="50" height="50" relative="1" as="geometry">
            <mxPoint x="650" y="360" as="sourcePoint" />
            <mxPoint x="700" y="310" as="targetPoint" />
          </mxGeometry>
        </mxCell>
        <mxCell id="Mvb_f3qtAEwJDjN7abNm-25" value="" style="edgeStyle=orthogonalEdgeStyle;rounded=0;orthogonalLoop=1;jettySize=auto;html=1;" parent="1" source="Mvb_f3qtAEwJDjN7abNm-16" target="Mvb_f3qtAEwJDjN7abNm-18" edge="1">
          <mxGeometry relative="1" as="geometry" />
        </mxCell>
        <mxCell id="Mvb_f3qtAEwJDjN7abNm-29" value="" style="edgeStyle=orthogonalEdgeStyle;rounded=0;orthogonalLoop=1;jettySize=auto;html=1;" parent="1" source="Mvb_f3qtAEwJDjN7abNm-20" target="Mvb_f3qtAEwJDjN7abNm-27" edge="1">
          <mxGeometry relative="1" as="geometry">
            <Array as="points">
              <mxPoint x="600" y="340" />
            </Array>
          </mxGeometry>
        </mxCell>
        <mxCell id="Mvb_f3qtAEwJDjN7abNm-32" value="" style="edgeStyle=orthogonalEdgeStyle;rounded=0;orthogonalLoop=1;jettySize=auto;html=1;" parent="1" source="Mvb_f3qtAEwJDjN7abNm-21" target="Mvb_f3qtAEwJDjN7abNm-31" edge="1">
          <mxGeometry relative="1" as="geometry" />
        </mxCell>
        <mxCell id="u3ca_C0zvIhu3rWEf725-1" value="" style="edgeStyle=orthogonalEdgeStyle;rounded=0;orthogonalLoop=1;jettySize=auto;html=1;" parent="1" source="Mvb_f3qtAEwJDjN7abNm-3" target="u3ca_C0zvIhu3rWEf725-2" edge="1">
          <mxGeometry relative="1" as="geometry">
            <mxPoint x="510" y="130" as="sourcePoint" />
            <mxPoint x="650" y="210" as="targetPoint" />
          </mxGeometry>
        </mxCell>
      </root>
    </mxGraphModel>
  </diagram>
  <diagram id="H0MWWkZO03wr9apZREZQ" name="register">
    <mxGraphModel dx="1226" dy="736" grid="1" gridSize="10" guides="1" tooltips="1" connect="1" arrows="1" fold="1" page="1" pageScale="1" pageWidth="850" pageHeight="1100" math="0" shadow="0">
      <root>
        <mxCell id="0" />
        <mxCell id="1" parent="0" />
        <mxCell id="BBFSUsSad6T1aRCdnnDP-1" value="Frontend" style="swimlane;whiteSpace=wrap;html=1;" parent="1" vertex="1">
          <mxGeometry x="60" y="100" width="350" height="720" as="geometry">
            <mxRectangle x="60" y="100" width="90" height="30" as="alternateBounds" />
          </mxGeometry>
        </mxCell>
        <mxCell id="yZjEtqqbdMRf9mBd7XlL-5" value="" style="edgeStyle=orthogonalEdgeStyle;rounded=0;orthogonalLoop=1;jettySize=auto;html=1;" parent="BBFSUsSad6T1aRCdnnDP-1" source="nC5GCPubGoQcEyuwpU_M-1" target="yZjEtqqbdMRf9mBd7XlL-1" edge="1">
          <mxGeometry relative="1" as="geometry" />
        </mxCell>
        <mxCell id="nC5GCPubGoQcEyuwpU_M-1" value="R1" style="ellipse;whiteSpace=wrap;html=1;aspect=fixed;strokeWidth=10;" parent="BBFSUsSad6T1aRCdnnDP-1" vertex="1">
          <mxGeometry x="40" y="60" width="80" height="80" as="geometry" />
        </mxCell>
        <mxCell id="yZjEtqqbdMRf9mBd7XlL-9" value="" style="edgeStyle=orthogonalEdgeStyle;rounded=0;orthogonalLoop=1;jettySize=auto;html=1;" parent="BBFSUsSad6T1aRCdnnDP-1" source="4akFQnIFQQOF1fAcGARJ-1" target="yZjEtqqbdMRf9mBd7XlL-7" edge="1">
          <mxGeometry relative="1" as="geometry" />
        </mxCell>
        <mxCell id="4akFQnIFQQOF1fAcGARJ-1" value="input name username password" style="rounded=1;whiteSpace=wrap;html=1;" parent="BBFSUsSad6T1aRCdnnDP-1" vertex="1">
          <mxGeometry x="20" y="280" width="120" height="60" as="geometry" />
        </mxCell>
        <mxCell id="yZjEtqqbdMRf9mBd7XlL-4" value="no" style="edgeStyle=orthogonalEdgeStyle;rounded=0;orthogonalLoop=1;jettySize=auto;html=1;" parent="BBFSUsSad6T1aRCdnnDP-1" source="yZjEtqqbdMRf9mBd7XlL-1" target="4akFQnIFQQOF1fAcGARJ-1" edge="1">
          <mxGeometry relative="1" as="geometry" />
        </mxCell>
        <mxCell id="yZjEtqqbdMRf9mBd7XlL-1" value="have account" style="rhombus;whiteSpace=wrap;html=1;" parent="BBFSUsSad6T1aRCdnnDP-1" vertex="1">
          <mxGeometry x="40" y="170" width="80" height="80" as="geometry" />
        </mxCell>
        <mxCell id="yZjEtqqbdMRf9mBd7XlL-2" value="click login button" style="rounded=1;whiteSpace=wrap;html=1;" parent="BBFSUsSad6T1aRCdnnDP-1" vertex="1">
          <mxGeometry x="190" y="180" width="120" height="60" as="geometry" />
        </mxCell>
        <mxCell id="yZjEtqqbdMRf9mBd7XlL-3" value="yes" style="endArrow=classic;html=1;rounded=0;" parent="BBFSUsSad6T1aRCdnnDP-1" source="yZjEtqqbdMRf9mBd7XlL-1" target="yZjEtqqbdMRf9mBd7XlL-2" edge="1">
          <mxGeometry width="50" height="50" relative="1" as="geometry">
            <mxPoint x="480" y="290" as="sourcePoint" />
            <mxPoint x="250" y="230" as="targetPoint" />
          </mxGeometry>
        </mxCell>
        <mxCell id="yZjEtqqbdMRf9mBd7XlL-10" value="no" style="edgeStyle=orthogonalEdgeStyle;rounded=0;orthogonalLoop=1;jettySize=auto;html=1;" parent="BBFSUsSad6T1aRCdnnDP-1" source="yZjEtqqbdMRf9mBd7XlL-7" target="yZjEtqqbdMRf9mBd7XlL-8" edge="1">
          <mxGeometry relative="1" as="geometry" />
        </mxCell>
        <mxCell id="yZjEtqqbdMRf9mBd7XlL-15" value="" style="edgeStyle=orthogonalEdgeStyle;rounded=0;orthogonalLoop=1;jettySize=auto;html=1;" parent="BBFSUsSad6T1aRCdnnDP-1" source="yZjEtqqbdMRf9mBd7XlL-7" target="yZjEtqqbdMRf9mBd7XlL-16" edge="1">
          <mxGeometry relative="1" as="geometry">
            <mxPoint x="80" y="480" as="targetPoint" />
          </mxGeometry>
        </mxCell>
        <mxCell id="yZjEtqqbdMRf9mBd7XlL-7" value="input is valid" style="rhombus;whiteSpace=wrap;html=1;" parent="BBFSUsSad6T1aRCdnnDP-1" vertex="1">
          <mxGeometry x="40" y="370" width="80" height="80" as="geometry" />
        </mxCell>
        <mxCell id="yZjEtqqbdMRf9mBd7XlL-12" value="" style="edgeStyle=orthogonalEdgeStyle;rounded=0;orthogonalLoop=1;jettySize=auto;html=1;" parent="BBFSUsSad6T1aRCdnnDP-1" source="yZjEtqqbdMRf9mBd7XlL-8" target="yZjEtqqbdMRf9mBd7XlL-11" edge="1">
          <mxGeometry relative="1" as="geometry" />
        </mxCell>
        <mxCell id="yZjEtqqbdMRf9mBd7XlL-8" value="show invalid input reason" style="rounded=1;whiteSpace=wrap;html=1;" parent="BBFSUsSad6T1aRCdnnDP-1" vertex="1">
          <mxGeometry x="190" y="380" width="120" height="60" as="geometry" />
        </mxCell>
        <mxCell id="yZjEtqqbdMRf9mBd7XlL-13" value="" style="edgeStyle=orthogonalEdgeStyle;rounded=0;orthogonalLoop=1;jettySize=auto;html=1;" parent="BBFSUsSad6T1aRCdnnDP-1" source="yZjEtqqbdMRf9mBd7XlL-11" target="4akFQnIFQQOF1fAcGARJ-1" edge="1">
          <mxGeometry relative="1" as="geometry" />
        </mxCell>
        <mxCell id="yZjEtqqbdMRf9mBd7XlL-11" value="clear form" style="rounded=1;whiteSpace=wrap;html=1;" parent="BBFSUsSad6T1aRCdnnDP-1" vertex="1">
          <mxGeometry x="190" y="280" width="120" height="60" as="geometry" />
        </mxCell>
        <mxCell id="yZjEtqqbdMRf9mBd7XlL-16" value="sent new user to backend" style="rounded=1;whiteSpace=wrap;html=1;" parent="BBFSUsSad6T1aRCdnnDP-1" vertex="1">
          <mxGeometry x="20" y="480" width="120" height="60" as="geometry" />
        </mxCell>
        <mxCell id="wR9JRjDVBFuseTzQ2STw-14" style="edgeStyle=orthogonalEdgeStyle;rounded=0;orthogonalLoop=1;jettySize=auto;html=1;" edge="1" parent="BBFSUsSad6T1aRCdnnDP-1" source="wR9JRjDVBFuseTzQ2STw-16" target="4akFQnIFQQOF1fAcGARJ-1">
          <mxGeometry relative="1" as="geometry">
            <mxPoint x="330" y="180" as="sourcePoint" />
            <Array as="points">
              <mxPoint x="330" y="160" />
              <mxPoint x="330" y="250" />
              <mxPoint x="120" y="250" />
            </Array>
          </mxGeometry>
        </mxCell>
        <mxCell id="wR9JRjDVBFuseTzQ2STw-12" value="show error clear form" style="rounded=1;whiteSpace=wrap;html=1;" vertex="1" parent="BBFSUsSad6T1aRCdnnDP-1">
          <mxGeometry x="190" y="80" width="120" height="60" as="geometry" />
        </mxCell>
        <mxCell id="wR9JRjDVBFuseTzQ2STw-16" value="" style="ellipse;whiteSpace=wrap;html=1;aspect=fixed;fillColor=#000000;" vertex="1" parent="BBFSUsSad6T1aRCdnnDP-1">
          <mxGeometry x="320" y="150" width="20" height="20" as="geometry" />
        </mxCell>
        <mxCell id="sh_NrRe7A78qdKCSARg4-2" value="" style="endArrow=classic;html=1;rounded=0;" edge="1" parent="BBFSUsSad6T1aRCdnnDP-1" source="wR9JRjDVBFuseTzQ2STw-12" target="wR9JRjDVBFuseTzQ2STw-16">
          <mxGeometry width="50" height="50" relative="1" as="geometry">
            <mxPoint x="360" y="290" as="sourcePoint" />
            <mxPoint x="410" y="240" as="targetPoint" />
          </mxGeometry>
        </mxCell>
        <mxCell id="sh_NrRe7A78qdKCSARg4-3" value="" style="endArrow=classic;html=1;rounded=0;" edge="1" parent="BBFSUsSad6T1aRCdnnDP-1" source="wR9JRjDVBFuseTzQ2STw-16" target="yZjEtqqbdMRf9mBd7XlL-2">
          <mxGeometry width="50" height="50" relative="1" as="geometry">
            <mxPoint x="360" y="290" as="sourcePoint" />
            <mxPoint x="410" y="240" as="targetPoint" />
          </mxGeometry>
        </mxCell>
        <mxCell id="j07806HV3fwlU3lXc7I2-3" value="" style="edgeStyle=orthogonalEdgeStyle;rounded=0;orthogonalLoop=1;jettySize=auto;html=1;" edge="1" parent="BBFSUsSad6T1aRCdnnDP-1" source="RruexT5TJReTOsnbRaQ3-3" target="j07806HV3fwlU3lXc7I2-2">
          <mxGeometry relative="1" as="geometry" />
        </mxCell>
        <mxCell id="RruexT5TJReTOsnbRaQ3-3" value="redirect to login page" style="rounded=1;whiteSpace=wrap;html=1;" vertex="1" parent="BBFSUsSad6T1aRCdnnDP-1">
          <mxGeometry x="190" y="580" width="120" height="60" as="geometry" />
        </mxCell>
        <mxCell id="j07806HV3fwlU3lXc7I2-2" value="Login page" style="ellipse;whiteSpace=wrap;html=1;aspect=fixed;strokeWidth=10;" vertex="1" parent="BBFSUsSad6T1aRCdnnDP-1">
          <mxGeometry x="40" y="570" width="80" height="80" as="geometry" />
        </mxCell>
        <mxCell id="BBFSUsSad6T1aRCdnnDP-2" value="Backend" style="swimlane;whiteSpace=wrap;html=1;" parent="1" vertex="1">
          <mxGeometry x="410" y="100" width="350" height="720" as="geometry" />
        </mxCell>
        <mxCell id="wh8nNYRn67kP_ZtrIm8T-1" value="" style="edgeStyle=orthogonalEdgeStyle;rounded=0;orthogonalLoop=1;jettySize=auto;html=1;" parent="BBFSUsSad6T1aRCdnnDP-2" source="yZjEtqqbdMRf9mBd7XlL-17" target="yZjEtqqbdMRf9mBd7XlL-19" edge="1">
          <mxGeometry relative="1" as="geometry" />
        </mxCell>
        <mxCell id="yZjEtqqbdMRf9mBd7XlL-17" value="recive data from frontend" style="rounded=1;whiteSpace=wrap;html=1;" parent="BBFSUsSad6T1aRCdnnDP-2" vertex="1">
          <mxGeometry x="20" y="480" width="120" height="60" as="geometry" />
        </mxCell>
        <mxCell id="wR9JRjDVBFuseTzQ2STw-4" value="" style="edgeStyle=orthogonalEdgeStyle;rounded=0;orthogonalLoop=1;jettySize=auto;html=1;" edge="1" parent="BBFSUsSad6T1aRCdnnDP-2" source="yZjEtqqbdMRf9mBd7XlL-19" target="A-8SDT1XBEca1XH_u2Dx-1">
          <mxGeometry relative="1" as="geometry" />
        </mxCell>
        <mxCell id="yZjEtqqbdMRf9mBd7XlL-19" value="validate data" style="rounded=1;whiteSpace=wrap;html=1;" parent="BBFSUsSad6T1aRCdnnDP-2" vertex="1">
          <mxGeometry x="20" y="380" width="120" height="60" as="geometry" />
        </mxCell>
        <mxCell id="A-8SDT1XBEca1XH_u2Dx-1" value="insert new user into database" style="rounded=1;whiteSpace=wrap;html=1;" vertex="1" parent="BBFSUsSad6T1aRCdnnDP-2">
          <mxGeometry x="20" y="280" width="120" height="60" as="geometry" />
        </mxCell>
        <mxCell id="wR9JRjDVBFuseTzQ2STw-10" value="sent error to frontend" style="rounded=1;whiteSpace=wrap;html=1;" vertex="1" parent="BBFSUsSad6T1aRCdnnDP-2">
          <mxGeometry x="20" y="180" width="120" height="60" as="geometry" />
        </mxCell>
        <mxCell id="j07806HV3fwlU3lXc7I2-1" value="sent success message to frontend" style="rounded=1;whiteSpace=wrap;html=1;" vertex="1" parent="BBFSUsSad6T1aRCdnnDP-2">
          <mxGeometry x="200" y="580" width="120" height="60" as="geometry" />
        </mxCell>
        <mxCell id="BBFSUsSad6T1aRCdnnDP-3" value="Database" style="swimlane;whiteSpace=wrap;html=1;" parent="1" vertex="1">
          <mxGeometry x="760" y="100" width="350" height="720" as="geometry" />
        </mxCell>
        <mxCell id="wR9JRjDVBFuseTzQ2STw-5" value="" style="edgeStyle=orthogonalEdgeStyle;rounded=0;orthogonalLoop=1;jettySize=auto;html=1;" edge="1" parent="BBFSUsSad6T1aRCdnnDP-3" source="wR9JRjDVBFuseTzQ2STw-1" target="wR9JRjDVBFuseTzQ2STw-2">
          <mxGeometry relative="1" as="geometry" />
        </mxCell>
        <mxCell id="wR9JRjDVBFuseTzQ2STw-1" value="execute insert into query" style="rounded=1;whiteSpace=wrap;html=1;" vertex="1" parent="BBFSUsSad6T1aRCdnnDP-3">
          <mxGeometry x="20" y="280" width="120" height="60" as="geometry" />
        </mxCell>
        <mxCell id="wR9JRjDVBFuseTzQ2STw-8" value="no" style="edgeStyle=orthogonalEdgeStyle;rounded=0;orthogonalLoop=1;jettySize=auto;html=1;" edge="1" parent="BBFSUsSad6T1aRCdnnDP-3" source="wR9JRjDVBFuseTzQ2STw-2" target="wR9JRjDVBFuseTzQ2STw-6">
          <mxGeometry x="0.2" y="-10" relative="1" as="geometry">
            <mxPoint as="offset" />
          </mxGeometry>
        </mxCell>
        <mxCell id="wR9JRjDVBFuseTzQ2STw-9" value="yes" style="edgeStyle=orthogonalEdgeStyle;rounded=0;orthogonalLoop=1;jettySize=auto;html=1;" edge="1" parent="BBFSUsSad6T1aRCdnnDP-3" source="wR9JRjDVBFuseTzQ2STw-2" target="wR9JRjDVBFuseTzQ2STw-7">
          <mxGeometry x="0.2" y="10" relative="1" as="geometry">
            <mxPoint as="offset" />
          </mxGeometry>
        </mxCell>
        <mxCell id="wR9JRjDVBFuseTzQ2STw-2" value="is success" style="rhombus;whiteSpace=wrap;html=1;" vertex="1" parent="BBFSUsSad6T1aRCdnnDP-3">
          <mxGeometry x="200" y="270" width="80" height="80" as="geometry" />
        </mxCell>
        <mxCell id="wR9JRjDVBFuseTzQ2STw-6" value="sent error to backend" style="rounded=1;whiteSpace=wrap;html=1;" vertex="1" parent="BBFSUsSad6T1aRCdnnDP-3">
          <mxGeometry x="180" y="180" width="120" height="60" as="geometry" />
        </mxCell>
        <mxCell id="wR9JRjDVBFuseTzQ2STw-7" value="sent user id to backend" style="rounded=1;whiteSpace=wrap;html=1;" vertex="1" parent="BBFSUsSad6T1aRCdnnDP-3">
          <mxGeometry x="180" y="380" width="120" height="60" as="geometry" />
        </mxCell>
        <mxCell id="yZjEtqqbdMRf9mBd7XlL-18" style="edgeStyle=orthogonalEdgeStyle;rounded=0;orthogonalLoop=1;jettySize=auto;html=1;" parent="1" source="yZjEtqqbdMRf9mBd7XlL-16" target="yZjEtqqbdMRf9mBd7XlL-17" edge="1">
          <mxGeometry relative="1" as="geometry" />
        </mxCell>
        <mxCell id="wR9JRjDVBFuseTzQ2STw-3" style="edgeStyle=orthogonalEdgeStyle;rounded=0;orthogonalLoop=1;jettySize=auto;html=1;" edge="1" parent="1" source="A-8SDT1XBEca1XH_u2Dx-1" target="wR9JRjDVBFuseTzQ2STw-1">
          <mxGeometry relative="1" as="geometry" />
        </mxCell>
        <mxCell id="wR9JRjDVBFuseTzQ2STw-11" style="edgeStyle=orthogonalEdgeStyle;rounded=0;orthogonalLoop=1;jettySize=auto;html=1;" edge="1" parent="1" source="wR9JRjDVBFuseTzQ2STw-6" target="wR9JRjDVBFuseTzQ2STw-10">
          <mxGeometry relative="1" as="geometry" />
        </mxCell>
        <mxCell id="wR9JRjDVBFuseTzQ2STw-13" style="edgeStyle=orthogonalEdgeStyle;rounded=0;orthogonalLoop=1;jettySize=auto;html=1;" edge="1" parent="1" source="wR9JRjDVBFuseTzQ2STw-10" target="wR9JRjDVBFuseTzQ2STw-12">
          <mxGeometry relative="1" as="geometry">
            <Array as="points">
              <mxPoint x="490" y="210" />
            </Array>
          </mxGeometry>
        </mxCell>
        <mxCell id="sh_NrRe7A78qdKCSARg4-5" style="edgeStyle=orthogonalEdgeStyle;rounded=0;orthogonalLoop=1;jettySize=auto;html=1;" edge="1" parent="1" source="wR9JRjDVBFuseTzQ2STw-7" target="j07806HV3fwlU3lXc7I2-1">
          <mxGeometry relative="1" as="geometry">
            <mxPoint x="740" y="510" as="targetPoint" />
          </mxGeometry>
        </mxCell>
        <mxCell id="L4CYyS_0EM5hh8N1A95T-2" value="" style="endArrow=classic;html=1;rounded=0;" edge="1" parent="1" source="j07806HV3fwlU3lXc7I2-1" target="RruexT5TJReTOsnbRaQ3-3">
          <mxGeometry width="50" height="50" relative="1" as="geometry">
            <mxPoint x="620" y="710" as="sourcePoint" />
            <mxPoint x="600" y="450" as="targetPoint" />
          </mxGeometry>
        </mxCell>
      </root>
    </mxGraphModel>
  </diagram>
  <diagram id="dv-MNj0hdXcucz5hw9Q0" name="home 1">
    <mxGraphModel dx="1303" dy="783" grid="1" gridSize="10" guides="1" tooltips="1" connect="1" arrows="1" fold="1" page="1" pageScale="1" pageWidth="850" pageHeight="1100" math="0" shadow="0">
      <root>
        <mxCell id="0" />
        <mxCell id="1" parent="0" />
        <mxCell id="9C8v0LNQzqLO54mt-9wO-1" value="Frontend" style="swimlane;whiteSpace=wrap;html=1;" vertex="1" parent="1">
          <mxGeometry x="70" y="140" width="940" height="620" as="geometry" />
        </mxCell>
        <mxCell id="QhZKw9TLVbunnNRg4dag-32" value="" style="edgeStyle=orthogonalEdgeStyle;rounded=0;orthogonalLoop=1;jettySize=auto;html=1;" edge="1" parent="9C8v0LNQzqLO54mt-9wO-1" source="rHlF4ZmEchcDPSjorVZt-1" target="QhZKw9TLVbunnNRg4dag-26">
          <mxGeometry relative="1" as="geometry" />
        </mxCell>
        <mxCell id="rHlF4ZmEchcDPSjorVZt-1" value="H1" style="ellipse;whiteSpace=wrap;html=1;aspect=fixed;strokeWidth=10;" vertex="1" parent="9C8v0LNQzqLO54mt-9wO-1">
          <mxGeometry x="180" y="40" width="80" height="80" as="geometry" />
        </mxCell>
        <mxCell id="QhZKw9TLVbunnNRg4dag-13" value="" style="edgeStyle=orthogonalEdgeStyle;rounded=0;orthogonalLoop=1;jettySize=auto;html=1;" edge="1" parent="9C8v0LNQzqLO54mt-9wO-1" source="QhZKw9TLVbunnNRg4dag-1" target="QhZKw9TLVbunnNRg4dag-6">
          <mxGeometry relative="1" as="geometry" />
        </mxCell>
        <mxCell id="QhZKw9TLVbunnNRg4dag-1" value="click profile button" style="rounded=1;whiteSpace=wrap;html=1;" vertex="1" parent="9C8v0LNQzqLO54mt-9wO-1">
          <mxGeometry x="90" y="170" width="120" height="60" as="geometry" />
        </mxCell>
        <mxCell id="QhZKw9TLVbunnNRg4dag-14" value="" style="edgeStyle=orthogonalEdgeStyle;rounded=0;orthogonalLoop=1;jettySize=auto;html=1;" edge="1" parent="9C8v0LNQzqLO54mt-9wO-1" source="QhZKw9TLVbunnNRg4dag-2" target="QhZKw9TLVbunnNRg4dag-8">
          <mxGeometry relative="1" as="geometry" />
        </mxCell>
        <mxCell id="QhZKw9TLVbunnNRg4dag-2" value="click setting button" style="rounded=1;whiteSpace=wrap;html=1;" vertex="1" parent="9C8v0LNQzqLO54mt-9wO-1">
          <mxGeometry x="90" y="260" width="120" height="60" as="geometry" />
        </mxCell>
        <mxCell id="QhZKw9TLVbunnNRg4dag-15" value="" style="edgeStyle=orthogonalEdgeStyle;rounded=0;orthogonalLoop=1;jettySize=auto;html=1;" edge="1" parent="9C8v0LNQzqLO54mt-9wO-1" source="QhZKw9TLVbunnNRg4dag-3" target="QhZKw9TLVbunnNRg4dag-9">
          <mxGeometry relative="1" as="geometry" />
        </mxCell>
        <mxCell id="QhZKw9TLVbunnNRg4dag-3" value="click about button" style="rounded=1;whiteSpace=wrap;html=1;" vertex="1" parent="9C8v0LNQzqLO54mt-9wO-1">
          <mxGeometry x="90" y="350" width="120" height="60" as="geometry" />
        </mxCell>
        <mxCell id="QhZKw9TLVbunnNRg4dag-16" value="" style="edgeStyle=orthogonalEdgeStyle;rounded=0;orthogonalLoop=1;jettySize=auto;html=1;" edge="1" parent="9C8v0LNQzqLO54mt-9wO-1" source="QhZKw9TLVbunnNRg4dag-4" target="QhZKw9TLVbunnNRg4dag-10">
          <mxGeometry relative="1" as="geometry" />
        </mxCell>
        <mxCell id="QhZKw9TLVbunnNRg4dag-4" value="click database button" style="rounded=1;whiteSpace=wrap;html=1;" vertex="1" parent="9C8v0LNQzqLO54mt-9wO-1">
          <mxGeometry x="90" y="440" width="120" height="60" as="geometry" />
        </mxCell>
        <mxCell id="QhZKw9TLVbunnNRg4dag-6" value="profile" style="ellipse;whiteSpace=wrap;html=1;aspect=fixed;strokeWidth=10;" vertex="1" parent="9C8v0LNQzqLO54mt-9wO-1">
          <mxGeometry x="240" y="160" width="80" height="80" as="geometry" />
        </mxCell>
        <mxCell id="QhZKw9TLVbunnNRg4dag-8" value="setting" style="ellipse;whiteSpace=wrap;html=1;aspect=fixed;strokeWidth=10;" vertex="1" parent="9C8v0LNQzqLO54mt-9wO-1">
          <mxGeometry x="240" y="250" width="80" height="80" as="geometry" />
        </mxCell>
        <mxCell id="QhZKw9TLVbunnNRg4dag-9" value="about" style="ellipse;whiteSpace=wrap;html=1;aspect=fixed;strokeWidth=10;" vertex="1" parent="9C8v0LNQzqLO54mt-9wO-1">
          <mxGeometry x="240" y="340" width="80" height="80" as="geometry" />
        </mxCell>
        <mxCell id="QhZKw9TLVbunnNRg4dag-10" value="database" style="ellipse;whiteSpace=wrap;html=1;aspect=fixed;strokeWidth=10;" vertex="1" parent="9C8v0LNQzqLO54mt-9wO-1">
          <mxGeometry x="240" y="430" width="80" height="80" as="geometry" />
        </mxCell>
        <mxCell id="QhZKw9TLVbunnNRg4dag-17" value="" style="edgeStyle=orthogonalEdgeStyle;rounded=0;orthogonalLoop=1;jettySize=auto;html=1;" edge="1" parent="9C8v0LNQzqLO54mt-9wO-1" source="QhZKw9TLVbunnNRg4dag-11" target="QhZKw9TLVbunnNRg4dag-12">
          <mxGeometry relative="1" as="geometry" />
        </mxCell>
        <mxCell id="QhZKw9TLVbunnNRg4dag-11" value="click tutorial button" style="rounded=1;whiteSpace=wrap;html=1;" vertex="1" parent="9C8v0LNQzqLO54mt-9wO-1">
          <mxGeometry x="90" y="530" width="120" height="60" as="geometry" />
        </mxCell>
        <mxCell id="QhZKw9TLVbunnNRg4dag-12" value="tutorial" style="ellipse;whiteSpace=wrap;html=1;aspect=fixed;strokeWidth=10;" vertex="1" parent="9C8v0LNQzqLO54mt-9wO-1">
          <mxGeometry x="240" y="520" width="80" height="80" as="geometry" />
        </mxCell>
        <mxCell id="wA2eRhn5vS1i0-tfsUwy-2" style="edgeStyle=orthogonalEdgeStyle;rounded=0;orthogonalLoop=1;jettySize=auto;html=1;entryX=0.5;entryY=0;entryDx=0;entryDy=0;" edge="1" parent="9C8v0LNQzqLO54mt-9wO-1" source="QhZKw9TLVbunnNRg4dag-26" target="QhZKw9TLVbunnNRg4dag-37">
          <mxGeometry relative="1" as="geometry">
            <Array as="points">
              <mxPoint x="50" y="120" />
              <mxPoint x="50" y="120" />
            </Array>
          </mxGeometry>
        </mxCell>
        <mxCell id="QhZKw9TLVbunnNRg4dag-26" value="render home page GUI" style="rounded=1;whiteSpace=wrap;html=1;" vertex="1" parent="9C8v0LNQzqLO54mt-9wO-1">
          <mxGeometry x="20" y="50" width="120" height="60" as="geometry" />
        </mxCell>
        <mxCell id="wA2eRhn5vS1i0-tfsUwy-3" style="edgeStyle=orthogonalEdgeStyle;rounded=0;orthogonalLoop=1;jettySize=auto;html=1;entryX=0;entryY=0.5;entryDx=0;entryDy=0;" edge="1" parent="9C8v0LNQzqLO54mt-9wO-1" source="QhZKw9TLVbunnNRg4dag-37" target="QhZKw9TLVbunnNRg4dag-1">
          <mxGeometry relative="1" as="geometry">
            <Array as="points">
              <mxPoint x="50" y="200" />
            </Array>
          </mxGeometry>
        </mxCell>
        <mxCell id="wA2eRhn5vS1i0-tfsUwy-4" style="edgeStyle=orthogonalEdgeStyle;rounded=0;orthogonalLoop=1;jettySize=auto;html=1;exitX=0.5;exitY=1;exitDx=0;exitDy=0;entryX=0;entryY=0.5;entryDx=0;entryDy=0;" edge="1" parent="9C8v0LNQzqLO54mt-9wO-1" source="QhZKw9TLVbunnNRg4dag-37" target="QhZKw9TLVbunnNRg4dag-2">
          <mxGeometry relative="1" as="geometry" />
        </mxCell>
        <mxCell id="wA2eRhn5vS1i0-tfsUwy-5" style="edgeStyle=orthogonalEdgeStyle;rounded=0;orthogonalLoop=1;jettySize=auto;html=1;exitX=0.5;exitY=1;exitDx=0;exitDy=0;entryX=0;entryY=0.5;entryDx=0;entryDy=0;" edge="1" parent="9C8v0LNQzqLO54mt-9wO-1" source="QhZKw9TLVbunnNRg4dag-37" target="QhZKw9TLVbunnNRg4dag-3">
          <mxGeometry relative="1" as="geometry" />
        </mxCell>
        <mxCell id="wA2eRhn5vS1i0-tfsUwy-6" style="edgeStyle=orthogonalEdgeStyle;rounded=0;orthogonalLoop=1;jettySize=auto;html=1;exitX=0.5;exitY=1;exitDx=0;exitDy=0;entryX=0;entryY=0.5;entryDx=0;entryDy=0;" edge="1" parent="9C8v0LNQzqLO54mt-9wO-1" source="QhZKw9TLVbunnNRg4dag-37" target="QhZKw9TLVbunnNRg4dag-4">
          <mxGeometry relative="1" as="geometry" />
        </mxCell>
        <mxCell id="wA2eRhn5vS1i0-tfsUwy-7" style="edgeStyle=orthogonalEdgeStyle;rounded=0;orthogonalLoop=1;jettySize=auto;html=1;exitX=0.5;exitY=1;exitDx=0;exitDy=0;entryX=0;entryY=0.5;entryDx=0;entryDy=0;" edge="1" parent="9C8v0LNQzqLO54mt-9wO-1" source="QhZKw9TLVbunnNRg4dag-37" target="QhZKw9TLVbunnNRg4dag-11">
          <mxGeometry relative="1" as="geometry" />
        </mxCell>
        <mxCell id="_cdcQkLj8taljanrsZGD-22" style="edgeStyle=orthogonalEdgeStyle;rounded=0;orthogonalLoop=1;jettySize=auto;html=1;entryX=0;entryY=0.5;entryDx=0;entryDy=0;" edge="1" parent="9C8v0LNQzqLO54mt-9wO-1" source="QhZKw9TLVbunnNRg4dag-37" target="_cdcQkLj8taljanrsZGD-21">
          <mxGeometry relative="1" as="geometry" />
        </mxCell>
        <mxCell id="QhZKw9TLVbunnNRg4dag-37" value="" style="ellipse;whiteSpace=wrap;html=1;aspect=fixed;fillColor=#000000;" vertex="1" parent="9C8v0LNQzqLO54mt-9wO-1">
          <mxGeometry x="40" y="130" width="20" height="20" as="geometry" />
        </mxCell>
        <mxCell id="_cdcQkLj8taljanrsZGD-1" value="" style="edgeStyle=orthogonalEdgeStyle;rounded=0;orthogonalLoop=1;jettySize=auto;html=1;" edge="1" source="_cdcQkLj8taljanrsZGD-2" target="_cdcQkLj8taljanrsZGD-9" parent="9C8v0LNQzqLO54mt-9wO-1">
          <mxGeometry relative="1" as="geometry" />
        </mxCell>
        <mxCell id="_cdcQkLj8taljanrsZGD-2" value="click party role button" style="rounded=1;whiteSpace=wrap;html=1;" vertex="1" parent="9C8v0LNQzqLO54mt-9wO-1">
          <mxGeometry x="390" y="170" width="120" height="60" as="geometry" />
        </mxCell>
        <mxCell id="_cdcQkLj8taljanrsZGD-3" value="" style="edgeStyle=orthogonalEdgeStyle;rounded=0;orthogonalLoop=1;jettySize=auto;html=1;" edge="1" source="_cdcQkLj8taljanrsZGD-4" target="_cdcQkLj8taljanrsZGD-10" parent="9C8v0LNQzqLO54mt-9wO-1">
          <mxGeometry relative="1" as="geometry" />
        </mxCell>
        <mxCell id="_cdcQkLj8taljanrsZGD-4" value="click party relationship button button" style="rounded=1;whiteSpace=wrap;html=1;" vertex="1" parent="9C8v0LNQzqLO54mt-9wO-1">
          <mxGeometry x="390" y="260" width="120" height="60" as="geometry" />
        </mxCell>
        <mxCell id="_cdcQkLj8taljanrsZGD-5" value="" style="edgeStyle=orthogonalEdgeStyle;rounded=0;orthogonalLoop=1;jettySize=auto;html=1;" edge="1" source="_cdcQkLj8taljanrsZGD-6" target="_cdcQkLj8taljanrsZGD-11" parent="9C8v0LNQzqLO54mt-9wO-1">
          <mxGeometry relative="1" as="geometry" />
        </mxCell>
        <mxCell id="_cdcQkLj8taljanrsZGD-6" value="click communication event button" style="rounded=1;whiteSpace=wrap;html=1;" vertex="1" parent="9C8v0LNQzqLO54mt-9wO-1">
          <mxGeometry x="390" y="350" width="120" height="60" as="geometry" />
        </mxCell>
        <mxCell id="_cdcQkLj8taljanrsZGD-7" value="" style="edgeStyle=orthogonalEdgeStyle;rounded=0;orthogonalLoop=1;jettySize=auto;html=1;" edge="1" source="_cdcQkLj8taljanrsZGD-8" target="_cdcQkLj8taljanrsZGD-12" parent="9C8v0LNQzqLO54mt-9wO-1">
          <mxGeometry relative="1" as="geometry" />
        </mxCell>
        <mxCell id="_cdcQkLj8taljanrsZGD-8" value="click communication event purpose button" style="rounded=1;whiteSpace=wrap;html=1;" vertex="1" parent="9C8v0LNQzqLO54mt-9wO-1">
          <mxGeometry x="390" y="440" width="120" height="60" as="geometry" />
        </mxCell>
        <mxCell id="_cdcQkLj8taljanrsZGD-9" value="party role" style="ellipse;whiteSpace=wrap;html=1;aspect=fixed;strokeWidth=10;" vertex="1" parent="9C8v0LNQzqLO54mt-9wO-1">
          <mxGeometry x="540" y="160" width="80" height="80" as="geometry" />
        </mxCell>
        <mxCell id="_cdcQkLj8taljanrsZGD-10" value="party relationship" style="ellipse;whiteSpace=wrap;html=1;aspect=fixed;strokeWidth=10;" vertex="1" parent="9C8v0LNQzqLO54mt-9wO-1">
          <mxGeometry x="540" y="250" width="80" height="80" as="geometry" />
        </mxCell>
        <mxCell id="_cdcQkLj8taljanrsZGD-11" value="&lt;font style=&quot;font-size: 10px;&quot;&gt;communication event&lt;/font&gt;" style="ellipse;whiteSpace=wrap;html=1;aspect=fixed;strokeWidth=10;" vertex="1" parent="9C8v0LNQzqLO54mt-9wO-1">
          <mxGeometry x="540" y="340" width="80" height="80" as="geometry" />
        </mxCell>
        <mxCell id="_cdcQkLj8taljanrsZGD-12" value="&lt;font style=&quot;font-size: 10px;&quot;&gt;communication event purpose&lt;/font&gt;" style="ellipse;whiteSpace=wrap;html=1;aspect=fixed;strokeWidth=10;" vertex="1" parent="9C8v0LNQzqLO54mt-9wO-1">
          <mxGeometry x="540" y="430" width="80" height="80" as="geometry" />
        </mxCell>
        <mxCell id="_cdcQkLj8taljanrsZGD-13" value="" style="edgeStyle=orthogonalEdgeStyle;rounded=0;orthogonalLoop=1;jettySize=auto;html=1;" edge="1" source="_cdcQkLj8taljanrsZGD-14" target="_cdcQkLj8taljanrsZGD-15" parent="9C8v0LNQzqLO54mt-9wO-1">
          <mxGeometry relative="1" as="geometry" />
        </mxCell>
        <mxCell id="_cdcQkLj8taljanrsZGD-14" value="click classify by minority button" style="rounded=1;whiteSpace=wrap;html=1;" vertex="1" parent="9C8v0LNQzqLO54mt-9wO-1">
          <mxGeometry x="390" y="530" width="120" height="60" as="geometry" />
        </mxCell>
        <mxCell id="_cdcQkLj8taljanrsZGD-15" value="classify by minority" style="ellipse;whiteSpace=wrap;html=1;aspect=fixed;strokeWidth=10;" vertex="1" parent="9C8v0LNQzqLO54mt-9wO-1">
          <mxGeometry x="540" y="520" width="80" height="80" as="geometry" />
        </mxCell>
        <mxCell id="_cdcQkLj8taljanrsZGD-16" style="edgeStyle=orthogonalEdgeStyle;rounded=0;orthogonalLoop=1;jettySize=auto;html=1;entryX=0;entryY=0.5;entryDx=0;entryDy=0;" edge="1" source="_cdcQkLj8taljanrsZGD-21" target="_cdcQkLj8taljanrsZGD-2" parent="9C8v0LNQzqLO54mt-9wO-1">
          <mxGeometry relative="1" as="geometry">
            <Array as="points">
              <mxPoint x="350" y="200" />
            </Array>
          </mxGeometry>
        </mxCell>
        <mxCell id="_cdcQkLj8taljanrsZGD-17" style="edgeStyle=orthogonalEdgeStyle;rounded=0;orthogonalLoop=1;jettySize=auto;html=1;exitX=0.5;exitY=1;exitDx=0;exitDy=0;entryX=0;entryY=0.5;entryDx=0;entryDy=0;" edge="1" source="_cdcQkLj8taljanrsZGD-21" target="_cdcQkLj8taljanrsZGD-4" parent="9C8v0LNQzqLO54mt-9wO-1">
          <mxGeometry relative="1" as="geometry" />
        </mxCell>
        <mxCell id="_cdcQkLj8taljanrsZGD-18" style="edgeStyle=orthogonalEdgeStyle;rounded=0;orthogonalLoop=1;jettySize=auto;html=1;exitX=0.5;exitY=1;exitDx=0;exitDy=0;entryX=0;entryY=0.5;entryDx=0;entryDy=0;" edge="1" source="_cdcQkLj8taljanrsZGD-21" target="_cdcQkLj8taljanrsZGD-6" parent="9C8v0LNQzqLO54mt-9wO-1">
          <mxGeometry relative="1" as="geometry" />
        </mxCell>
        <mxCell id="_cdcQkLj8taljanrsZGD-19" style="edgeStyle=orthogonalEdgeStyle;rounded=0;orthogonalLoop=1;jettySize=auto;html=1;exitX=0.5;exitY=1;exitDx=0;exitDy=0;entryX=0;entryY=0.5;entryDx=0;entryDy=0;" edge="1" source="_cdcQkLj8taljanrsZGD-21" target="_cdcQkLj8taljanrsZGD-8" parent="9C8v0LNQzqLO54mt-9wO-1">
          <mxGeometry relative="1" as="geometry" />
        </mxCell>
        <mxCell id="_cdcQkLj8taljanrsZGD-20" style="edgeStyle=orthogonalEdgeStyle;rounded=0;orthogonalLoop=1;jettySize=auto;html=1;exitX=0.5;exitY=1;exitDx=0;exitDy=0;entryX=0;entryY=0.5;entryDx=0;entryDy=0;" edge="1" source="_cdcQkLj8taljanrsZGD-21" target="_cdcQkLj8taljanrsZGD-14" parent="9C8v0LNQzqLO54mt-9wO-1">
          <mxGeometry relative="1" as="geometry" />
        </mxCell>
        <mxCell id="_cdcQkLj8taljanrsZGD-44" style="edgeStyle=orthogonalEdgeStyle;rounded=0;orthogonalLoop=1;jettySize=auto;html=1;entryX=0;entryY=0.5;entryDx=0;entryDy=0;" edge="1" parent="9C8v0LNQzqLO54mt-9wO-1" source="_cdcQkLj8taljanrsZGD-21" target="_cdcQkLj8taljanrsZGD-43">
          <mxGeometry relative="1" as="geometry" />
        </mxCell>
        <mxCell id="_cdcQkLj8taljanrsZGD-21" value="" style="ellipse;whiteSpace=wrap;html=1;aspect=fixed;fillColor=#000000;" vertex="1" parent="9C8v0LNQzqLO54mt-9wO-1">
          <mxGeometry x="340" y="130" width="20" height="20" as="geometry" />
        </mxCell>
        <mxCell id="_cdcQkLj8taljanrsZGD-23" value="" style="edgeStyle=orthogonalEdgeStyle;rounded=0;orthogonalLoop=1;jettySize=auto;html=1;" edge="1" source="_cdcQkLj8taljanrsZGD-24" target="_cdcQkLj8taljanrsZGD-31" parent="9C8v0LNQzqLO54mt-9wO-1">
          <mxGeometry relative="1" as="geometry" />
        </mxCell>
        <mxCell id="_cdcQkLj8taljanrsZGD-24" value="click classify by size button" style="rounded=1;whiteSpace=wrap;html=1;" vertex="1" parent="9C8v0LNQzqLO54mt-9wO-1">
          <mxGeometry x="690" y="170" width="120" height="60" as="geometry" />
        </mxCell>
        <mxCell id="_cdcQkLj8taljanrsZGD-25" value="" style="edgeStyle=orthogonalEdgeStyle;rounded=0;orthogonalLoop=1;jettySize=auto;html=1;" edge="1" source="_cdcQkLj8taljanrsZGD-26" target="_cdcQkLj8taljanrsZGD-32" parent="9C8v0LNQzqLO54mt-9wO-1">
          <mxGeometry relative="1" as="geometry" />
        </mxCell>
        <mxCell id="_cdcQkLj8taljanrsZGD-26" value="click classify by industry button" style="rounded=1;whiteSpace=wrap;html=1;" vertex="1" parent="9C8v0LNQzqLO54mt-9wO-1">
          <mxGeometry x="690" y="260" width="120" height="60" as="geometry" />
        </mxCell>
        <mxCell id="_cdcQkLj8taljanrsZGD-27" value="" style="edgeStyle=orthogonalEdgeStyle;rounded=0;orthogonalLoop=1;jettySize=auto;html=1;" edge="1" source="_cdcQkLj8taljanrsZGD-28" target="_cdcQkLj8taljanrsZGD-33" parent="9C8v0LNQzqLO54mt-9wO-1">
          <mxGeometry relative="1" as="geometry" />
        </mxCell>
        <mxCell id="_cdcQkLj8taljanrsZGD-28" value="click classify by income button" style="rounded=1;whiteSpace=wrap;html=1;" vertex="1" parent="9C8v0LNQzqLO54mt-9wO-1">
          <mxGeometry x="690" y="350" width="120" height="60" as="geometry" />
        </mxCell>
        <mxCell id="_cdcQkLj8taljanrsZGD-29" value="" style="edgeStyle=orthogonalEdgeStyle;rounded=0;orthogonalLoop=1;jettySize=auto;html=1;" edge="1" source="_cdcQkLj8taljanrsZGD-30" target="_cdcQkLj8taljanrsZGD-34" parent="9C8v0LNQzqLO54mt-9wO-1">
          <mxGeometry relative="1" as="geometry" />
        </mxCell>
        <mxCell id="_cdcQkLj8taljanrsZGD-30" value="click classify by eeoc button" style="rounded=1;whiteSpace=wrap;html=1;" vertex="1" parent="9C8v0LNQzqLO54mt-9wO-1">
          <mxGeometry x="690" y="440" width="120" height="60" as="geometry" />
        </mxCell>
        <mxCell id="_cdcQkLj8taljanrsZGD-31" value="classify by size button" style="ellipse;whiteSpace=wrap;html=1;aspect=fixed;strokeWidth=10;" vertex="1" parent="9C8v0LNQzqLO54mt-9wO-1">
          <mxGeometry x="840" y="160" width="80" height="80" as="geometry" />
        </mxCell>
        <mxCell id="_cdcQkLj8taljanrsZGD-32" value="classify by industry" style="ellipse;whiteSpace=wrap;html=1;aspect=fixed;strokeWidth=10;" vertex="1" parent="9C8v0LNQzqLO54mt-9wO-1">
          <mxGeometry x="840" y="250" width="80" height="80" as="geometry" />
        </mxCell>
        <mxCell id="_cdcQkLj8taljanrsZGD-33" value="classify by income" style="ellipse;whiteSpace=wrap;html=1;aspect=fixed;strokeWidth=10;" vertex="1" parent="9C8v0LNQzqLO54mt-9wO-1">
          <mxGeometry x="840" y="340" width="80" height="80" as="geometry" />
        </mxCell>
        <mxCell id="_cdcQkLj8taljanrsZGD-34" value="classify by eeoc" style="ellipse;whiteSpace=wrap;html=1;aspect=fixed;strokeWidth=10;" vertex="1" parent="9C8v0LNQzqLO54mt-9wO-1">
          <mxGeometry x="840" y="430" width="80" height="80" as="geometry" />
        </mxCell>
        <mxCell id="_cdcQkLj8taljanrsZGD-35" value="" style="edgeStyle=orthogonalEdgeStyle;rounded=0;orthogonalLoop=1;jettySize=auto;html=1;" edge="1" source="_cdcQkLj8taljanrsZGD-36" target="_cdcQkLj8taljanrsZGD-37" parent="9C8v0LNQzqLO54mt-9wO-1">
          <mxGeometry relative="1" as="geometry" />
        </mxCell>
        <mxCell id="_cdcQkLj8taljanrsZGD-36" value="click specific organization type button" style="rounded=1;whiteSpace=wrap;html=1;" vertex="1" parent="9C8v0LNQzqLO54mt-9wO-1">
          <mxGeometry x="690" y="530" width="120" height="60" as="geometry" />
        </mxCell>
        <mxCell id="_cdcQkLj8taljanrsZGD-37" value="specific organization type" style="ellipse;whiteSpace=wrap;html=1;aspect=fixed;strokeWidth=10;" vertex="1" parent="9C8v0LNQzqLO54mt-9wO-1">
          <mxGeometry x="840" y="520" width="80" height="80" as="geometry" />
        </mxCell>
        <mxCell id="_cdcQkLj8taljanrsZGD-38" style="edgeStyle=orthogonalEdgeStyle;rounded=0;orthogonalLoop=1;jettySize=auto;html=1;entryX=0;entryY=0.5;entryDx=0;entryDy=0;" edge="1" source="_cdcQkLj8taljanrsZGD-43" target="_cdcQkLj8taljanrsZGD-24" parent="9C8v0LNQzqLO54mt-9wO-1">
          <mxGeometry relative="1" as="geometry">
            <Array as="points">
              <mxPoint x="650" y="200" />
            </Array>
          </mxGeometry>
        </mxCell>
        <mxCell id="_cdcQkLj8taljanrsZGD-39" style="edgeStyle=orthogonalEdgeStyle;rounded=0;orthogonalLoop=1;jettySize=auto;html=1;exitX=0.5;exitY=1;exitDx=0;exitDy=0;entryX=0;entryY=0.5;entryDx=0;entryDy=0;" edge="1" source="_cdcQkLj8taljanrsZGD-43" target="_cdcQkLj8taljanrsZGD-26" parent="9C8v0LNQzqLO54mt-9wO-1">
          <mxGeometry relative="1" as="geometry" />
        </mxCell>
        <mxCell id="_cdcQkLj8taljanrsZGD-40" style="edgeStyle=orthogonalEdgeStyle;rounded=0;orthogonalLoop=1;jettySize=auto;html=1;exitX=0.5;exitY=1;exitDx=0;exitDy=0;entryX=0;entryY=0.5;entryDx=0;entryDy=0;" edge="1" source="_cdcQkLj8taljanrsZGD-43" target="_cdcQkLj8taljanrsZGD-28" parent="9C8v0LNQzqLO54mt-9wO-1">
          <mxGeometry relative="1" as="geometry" />
        </mxCell>
        <mxCell id="_cdcQkLj8taljanrsZGD-41" style="edgeStyle=orthogonalEdgeStyle;rounded=0;orthogonalLoop=1;jettySize=auto;html=1;exitX=0.5;exitY=1;exitDx=0;exitDy=0;entryX=0;entryY=0.5;entryDx=0;entryDy=0;" edge="1" source="_cdcQkLj8taljanrsZGD-43" target="_cdcQkLj8taljanrsZGD-30" parent="9C8v0LNQzqLO54mt-9wO-1">
          <mxGeometry relative="1" as="geometry" />
        </mxCell>
        <mxCell id="_cdcQkLj8taljanrsZGD-42" style="edgeStyle=orthogonalEdgeStyle;rounded=0;orthogonalLoop=1;jettySize=auto;html=1;exitX=0.5;exitY=1;exitDx=0;exitDy=0;entryX=0;entryY=0.5;entryDx=0;entryDy=0;" edge="1" source="_cdcQkLj8taljanrsZGD-43" target="_cdcQkLj8taljanrsZGD-36" parent="9C8v0LNQzqLO54mt-9wO-1">
          <mxGeometry relative="1" as="geometry" />
        </mxCell>
        <mxCell id="_cdcQkLj8taljanrsZGD-43" value="" style="ellipse;whiteSpace=wrap;html=1;aspect=fixed;fillColor=#000000;" vertex="1" parent="9C8v0LNQzqLO54mt-9wO-1">
          <mxGeometry x="640" y="130" width="20" height="20" as="geometry" />
        </mxCell>
      </root>
    </mxGraphModel>
  </diagram>
  <diagram name="home 2" id="glzuEu58rQOkcDznwNhG">
    <mxGraphModel dx="1042" dy="626" grid="1" gridSize="10" guides="1" tooltips="1" connect="1" arrows="1" fold="1" page="1" pageScale="1" pageWidth="850" pageHeight="1100" math="0" shadow="0">
      <root>
        <mxCell id="Z0J20o8RJ79O66ES7HrN-0" />
        <mxCell id="Z0J20o8RJ79O66ES7HrN-1" parent="Z0J20o8RJ79O66ES7HrN-0" />
        <mxCell id="Z0J20o8RJ79O66ES7HrN-2" value="Frontend" style="swimlane;whiteSpace=wrap;html=1;" vertex="1" parent="Z0J20o8RJ79O66ES7HrN-1">
          <mxGeometry x="70" y="140" width="940" height="620" as="geometry" />
        </mxCell>
        <mxCell id="Z0J20o8RJ79O66ES7HrN-3" value="" style="edgeStyle=orthogonalEdgeStyle;rounded=0;orthogonalLoop=1;jettySize=auto;html=1;" edge="1" parent="Z0J20o8RJ79O66ES7HrN-2" source="Z0J20o8RJ79O66ES7HrN-4" target="Z0J20o8RJ79O66ES7HrN-21">
          <mxGeometry relative="1" as="geometry" />
        </mxCell>
        <mxCell id="Z0J20o8RJ79O66ES7HrN-4" value="H1" style="ellipse;whiteSpace=wrap;html=1;aspect=fixed;strokeWidth=10;" vertex="1" parent="Z0J20o8RJ79O66ES7HrN-2">
          <mxGeometry x="180" y="40" width="80" height="80" as="geometry" />
        </mxCell>
        <mxCell id="Z0J20o8RJ79O66ES7HrN-5" value="" style="edgeStyle=orthogonalEdgeStyle;rounded=0;orthogonalLoop=1;jettySize=auto;html=1;" edge="1" parent="Z0J20o8RJ79O66ES7HrN-2" source="Z0J20o8RJ79O66ES7HrN-6" target="Z0J20o8RJ79O66ES7HrN-13">
          <mxGeometry relative="1" as="geometry" />
        </mxCell>
        <mxCell id="Z0J20o8RJ79O66ES7HrN-6" value="click organization button" style="rounded=1;whiteSpace=wrap;html=1;" vertex="1" parent="Z0J20o8RJ79O66ES7HrN-2">
          <mxGeometry x="90" y="170" width="120" height="60" as="geometry" />
        </mxCell>
        <mxCell id="Z0J20o8RJ79O66ES7HrN-7" value="" style="edgeStyle=orthogonalEdgeStyle;rounded=0;orthogonalLoop=1;jettySize=auto;html=1;" edge="1" parent="Z0J20o8RJ79O66ES7HrN-2" source="Z0J20o8RJ79O66ES7HrN-8" target="Z0J20o8RJ79O66ES7HrN-14">
          <mxGeometry relative="1" as="geometry" />
        </mxCell>
        <mxCell id="Z0J20o8RJ79O66ES7HrN-8" value="click physical characteristic button" style="rounded=1;whiteSpace=wrap;html=1;" vertex="1" parent="Z0J20o8RJ79O66ES7HrN-2">
          <mxGeometry x="90" y="260" width="120" height="60" as="geometry" />
        </mxCell>
        <mxCell id="Z0J20o8RJ79O66ES7HrN-9" value="" style="edgeStyle=orthogonalEdgeStyle;rounded=0;orthogonalLoop=1;jettySize=auto;html=1;" edge="1" parent="Z0J20o8RJ79O66ES7HrN-2" source="Z0J20o8RJ79O66ES7HrN-10" target="Z0J20o8RJ79O66ES7HrN-15">
          <mxGeometry relative="1" as="geometry" />
        </mxCell>
        <mxCell id="Z0J20o8RJ79O66ES7HrN-10" value="click passport button" style="rounded=1;whiteSpace=wrap;html=1;" vertex="1" parent="Z0J20o8RJ79O66ES7HrN-2">
          <mxGeometry x="90" y="350" width="120" height="60" as="geometry" />
        </mxCell>
        <mxCell id="Z0J20o8RJ79O66ES7HrN-11" value="" style="edgeStyle=orthogonalEdgeStyle;rounded=0;orthogonalLoop=1;jettySize=auto;html=1;" edge="1" parent="Z0J20o8RJ79O66ES7HrN-2" source="Z0J20o8RJ79O66ES7HrN-12" target="Z0J20o8RJ79O66ES7HrN-16">
          <mxGeometry relative="1" as="geometry" />
        </mxCell>
        <mxCell id="Z0J20o8RJ79O66ES7HrN-12" value="click citizenship button" style="rounded=1;whiteSpace=wrap;html=1;" vertex="1" parent="Z0J20o8RJ79O66ES7HrN-2">
          <mxGeometry x="90" y="440" width="120" height="60" as="geometry" />
        </mxCell>
        <mxCell id="Z0J20o8RJ79O66ES7HrN-13" value="organization" style="ellipse;whiteSpace=wrap;html=1;aspect=fixed;strokeWidth=10;" vertex="1" parent="Z0J20o8RJ79O66ES7HrN-2">
          <mxGeometry x="240" y="160" width="80" height="80" as="geometry" />
        </mxCell>
        <mxCell id="Z0J20o8RJ79O66ES7HrN-14" value="&lt;font style=&quot;font-size: 11px;&quot;&gt;physical characteristic&lt;/font&gt;" style="ellipse;whiteSpace=wrap;html=1;aspect=fixed;strokeWidth=10;" vertex="1" parent="Z0J20o8RJ79O66ES7HrN-2">
          <mxGeometry x="240" y="250" width="80" height="80" as="geometry" />
        </mxCell>
        <mxCell id="Z0J20o8RJ79O66ES7HrN-15" value="passport" style="ellipse;whiteSpace=wrap;html=1;aspect=fixed;strokeWidth=10;" vertex="1" parent="Z0J20o8RJ79O66ES7HrN-2">
          <mxGeometry x="240" y="340" width="80" height="80" as="geometry" />
        </mxCell>
        <mxCell id="Z0J20o8RJ79O66ES7HrN-16" value="citizenship" style="ellipse;whiteSpace=wrap;html=1;aspect=fixed;strokeWidth=10;" vertex="1" parent="Z0J20o8RJ79O66ES7HrN-2">
          <mxGeometry x="240" y="430" width="80" height="80" as="geometry" />
        </mxCell>
        <mxCell id="Z0J20o8RJ79O66ES7HrN-17" value="" style="edgeStyle=orthogonalEdgeStyle;rounded=0;orthogonalLoop=1;jettySize=auto;html=1;" edge="1" parent="Z0J20o8RJ79O66ES7HrN-2" source="Z0J20o8RJ79O66ES7HrN-18" target="Z0J20o8RJ79O66ES7HrN-19">
          <mxGeometry relative="1" as="geometry" />
        </mxCell>
        <mxCell id="Z0J20o8RJ79O66ES7HrN-18" value="click person name button" style="rounded=1;whiteSpace=wrap;html=1;" vertex="1" parent="Z0J20o8RJ79O66ES7HrN-2">
          <mxGeometry x="90" y="530" width="120" height="60" as="geometry" />
        </mxCell>
        <mxCell id="Z0J20o8RJ79O66ES7HrN-19" value="person name" style="ellipse;whiteSpace=wrap;html=1;aspect=fixed;strokeWidth=10;" vertex="1" parent="Z0J20o8RJ79O66ES7HrN-2">
          <mxGeometry x="240" y="520" width="80" height="80" as="geometry" />
        </mxCell>
        <mxCell id="Z0J20o8RJ79O66ES7HrN-20" style="edgeStyle=orthogonalEdgeStyle;rounded=0;orthogonalLoop=1;jettySize=auto;html=1;entryX=0.5;entryY=0;entryDx=0;entryDy=0;" edge="1" parent="Z0J20o8RJ79O66ES7HrN-2" source="Z0J20o8RJ79O66ES7HrN-21" target="Z0J20o8RJ79O66ES7HrN-28">
          <mxGeometry relative="1" as="geometry">
            <Array as="points">
              <mxPoint x="50" y="120" />
              <mxPoint x="50" y="120" />
            </Array>
          </mxGeometry>
        </mxCell>
        <mxCell id="Z0J20o8RJ79O66ES7HrN-21" value="render home page GUI" style="rounded=1;whiteSpace=wrap;html=1;" vertex="1" parent="Z0J20o8RJ79O66ES7HrN-2">
          <mxGeometry x="20" y="50" width="120" height="60" as="geometry" />
        </mxCell>
        <mxCell id="Z0J20o8RJ79O66ES7HrN-22" style="edgeStyle=orthogonalEdgeStyle;rounded=0;orthogonalLoop=1;jettySize=auto;html=1;entryX=0;entryY=0.5;entryDx=0;entryDy=0;" edge="1" parent="Z0J20o8RJ79O66ES7HrN-2" source="Z0J20o8RJ79O66ES7HrN-28" target="Z0J20o8RJ79O66ES7HrN-6">
          <mxGeometry relative="1" as="geometry">
            <Array as="points">
              <mxPoint x="50" y="200" />
            </Array>
          </mxGeometry>
        </mxCell>
        <mxCell id="Z0J20o8RJ79O66ES7HrN-23" style="edgeStyle=orthogonalEdgeStyle;rounded=0;orthogonalLoop=1;jettySize=auto;html=1;exitX=0.5;exitY=1;exitDx=0;exitDy=0;entryX=0;entryY=0.5;entryDx=0;entryDy=0;" edge="1" parent="Z0J20o8RJ79O66ES7HrN-2" source="Z0J20o8RJ79O66ES7HrN-28" target="Z0J20o8RJ79O66ES7HrN-8">
          <mxGeometry relative="1" as="geometry" />
        </mxCell>
        <mxCell id="Z0J20o8RJ79O66ES7HrN-24" style="edgeStyle=orthogonalEdgeStyle;rounded=0;orthogonalLoop=1;jettySize=auto;html=1;exitX=0.5;exitY=1;exitDx=0;exitDy=0;entryX=0;entryY=0.5;entryDx=0;entryDy=0;" edge="1" parent="Z0J20o8RJ79O66ES7HrN-2" source="Z0J20o8RJ79O66ES7HrN-28" target="Z0J20o8RJ79O66ES7HrN-10">
          <mxGeometry relative="1" as="geometry" />
        </mxCell>
        <mxCell id="Z0J20o8RJ79O66ES7HrN-25" style="edgeStyle=orthogonalEdgeStyle;rounded=0;orthogonalLoop=1;jettySize=auto;html=1;exitX=0.5;exitY=1;exitDx=0;exitDy=0;entryX=0;entryY=0.5;entryDx=0;entryDy=0;" edge="1" parent="Z0J20o8RJ79O66ES7HrN-2" source="Z0J20o8RJ79O66ES7HrN-28" target="Z0J20o8RJ79O66ES7HrN-12">
          <mxGeometry relative="1" as="geometry" />
        </mxCell>
        <mxCell id="Z0J20o8RJ79O66ES7HrN-26" style="edgeStyle=orthogonalEdgeStyle;rounded=0;orthogonalLoop=1;jettySize=auto;html=1;exitX=0.5;exitY=1;exitDx=0;exitDy=0;entryX=0;entryY=0.5;entryDx=0;entryDy=0;" edge="1" parent="Z0J20o8RJ79O66ES7HrN-2" source="Z0J20o8RJ79O66ES7HrN-28" target="Z0J20o8RJ79O66ES7HrN-18">
          <mxGeometry relative="1" as="geometry" />
        </mxCell>
        <mxCell id="Z0J20o8RJ79O66ES7HrN-27" style="edgeStyle=orthogonalEdgeStyle;rounded=0;orthogonalLoop=1;jettySize=auto;html=1;entryX=0;entryY=0.5;entryDx=0;entryDy=0;" edge="1" parent="Z0J20o8RJ79O66ES7HrN-2" source="Z0J20o8RJ79O66ES7HrN-28" target="Z0J20o8RJ79O66ES7HrN-50">
          <mxGeometry relative="1" as="geometry" />
        </mxCell>
        <mxCell id="Z0J20o8RJ79O66ES7HrN-28" value="" style="ellipse;whiteSpace=wrap;html=1;aspect=fixed;fillColor=#000000;" vertex="1" parent="Z0J20o8RJ79O66ES7HrN-2">
          <mxGeometry x="40" y="130" width="20" height="20" as="geometry" />
        </mxCell>
        <mxCell id="Z0J20o8RJ79O66ES7HrN-29" value="" style="edgeStyle=orthogonalEdgeStyle;rounded=0;orthogonalLoop=1;jettySize=auto;html=1;" edge="1" parent="Z0J20o8RJ79O66ES7HrN-2" source="Z0J20o8RJ79O66ES7HrN-30" target="Z0J20o8RJ79O66ES7HrN-37">
          <mxGeometry relative="1" as="geometry" />
        </mxCell>
        <mxCell id="Z0J20o8RJ79O66ES7HrN-30" value="click marital status button" style="rounded=1;whiteSpace=wrap;html=1;" vertex="1" parent="Z0J20o8RJ79O66ES7HrN-2">
          <mxGeometry x="390" y="170" width="120" height="60" as="geometry" />
        </mxCell>
        <mxCell id="Z0J20o8RJ79O66ES7HrN-31" value="" style="edgeStyle=orthogonalEdgeStyle;rounded=0;orthogonalLoop=1;jettySize=auto;html=1;" edge="1" parent="Z0J20o8RJ79O66ES7HrN-2" source="Z0J20o8RJ79O66ES7HrN-32" target="Z0J20o8RJ79O66ES7HrN-38">
          <mxGeometry relative="1" as="geometry" />
        </mxCell>
        <mxCell id="Z0J20o8RJ79O66ES7HrN-32" value="click person button" style="rounded=1;whiteSpace=wrap;html=1;" vertex="1" parent="Z0J20o8RJ79O66ES7HrN-2">
          <mxGeometry x="390" y="260" width="120" height="60" as="geometry" />
        </mxCell>
        <mxCell id="Z0J20o8RJ79O66ES7HrN-33" value="" style="edgeStyle=orthogonalEdgeStyle;rounded=0;orthogonalLoop=1;jettySize=auto;html=1;" edge="1" parent="Z0J20o8RJ79O66ES7HrN-2" source="Z0J20o8RJ79O66ES7HrN-34" target="Z0J20o8RJ79O66ES7HrN-39">
          <mxGeometry relative="1" as="geometry" />
        </mxCell>
        <mxCell id="Z0J20o8RJ79O66ES7HrN-34" value="click gender type button" style="rounded=1;whiteSpace=wrap;html=1;" vertex="1" parent="Z0J20o8RJ79O66ES7HrN-2">
          <mxGeometry x="390" y="350" width="120" height="60" as="geometry" />
        </mxCell>
        <mxCell id="Z0J20o8RJ79O66ES7HrN-35" value="" style="edgeStyle=orthogonalEdgeStyle;rounded=0;orthogonalLoop=1;jettySize=auto;html=1;" edge="1" parent="Z0J20o8RJ79O66ES7HrN-2" source="Z0J20o8RJ79O66ES7HrN-36" target="Z0J20o8RJ79O66ES7HrN-40">
          <mxGeometry relative="1" as="geometry" />
        </mxCell>
        <mxCell id="Z0J20o8RJ79O66ES7HrN-36" value="click minority type button" style="rounded=1;whiteSpace=wrap;html=1;" vertex="1" parent="Z0J20o8RJ79O66ES7HrN-2">
          <mxGeometry x="390" y="440" width="120" height="60" as="geometry" />
        </mxCell>
        <mxCell id="Z0J20o8RJ79O66ES7HrN-37" value="marital status" style="ellipse;whiteSpace=wrap;html=1;aspect=fixed;strokeWidth=10;" vertex="1" parent="Z0J20o8RJ79O66ES7HrN-2">
          <mxGeometry x="540" y="160" width="80" height="80" as="geometry" />
        </mxCell>
        <mxCell id="Z0J20o8RJ79O66ES7HrN-38" value="person" style="ellipse;whiteSpace=wrap;html=1;aspect=fixed;strokeWidth=10;" vertex="1" parent="Z0J20o8RJ79O66ES7HrN-2">
          <mxGeometry x="540" y="250" width="80" height="80" as="geometry" />
        </mxCell>
        <mxCell id="Z0J20o8RJ79O66ES7HrN-39" value="gender type" style="ellipse;whiteSpace=wrap;html=1;aspect=fixed;strokeWidth=10;" vertex="1" parent="Z0J20o8RJ79O66ES7HrN-2">
          <mxGeometry x="540" y="340" width="80" height="80" as="geometry" />
        </mxCell>
        <mxCell id="Z0J20o8RJ79O66ES7HrN-40" value="minority type" style="ellipse;whiteSpace=wrap;html=1;aspect=fixed;strokeWidth=10;" vertex="1" parent="Z0J20o8RJ79O66ES7HrN-2">
          <mxGeometry x="540" y="430" width="80" height="80" as="geometry" />
        </mxCell>
        <mxCell id="Z0J20o8RJ79O66ES7HrN-41" value="" style="edgeStyle=orthogonalEdgeStyle;rounded=0;orthogonalLoop=1;jettySize=auto;html=1;" edge="1" parent="Z0J20o8RJ79O66ES7HrN-2" source="Z0J20o8RJ79O66ES7HrN-42" target="Z0J20o8RJ79O66ES7HrN-43">
          <mxGeometry relative="1" as="geometry" />
        </mxCell>
        <mxCell id="Z0J20o8RJ79O66ES7HrN-42" value="click employee count range button" style="rounded=1;whiteSpace=wrap;html=1;" vertex="1" parent="Z0J20o8RJ79O66ES7HrN-2">
          <mxGeometry x="390" y="530" width="120" height="60" as="geometry" />
        </mxCell>
        <mxCell id="Z0J20o8RJ79O66ES7HrN-43" value="employee count range" style="ellipse;whiteSpace=wrap;html=1;aspect=fixed;strokeWidth=10;" vertex="1" parent="Z0J20o8RJ79O66ES7HrN-2">
          <mxGeometry x="540" y="520" width="80" height="80" as="geometry" />
        </mxCell>
        <mxCell id="Z0J20o8RJ79O66ES7HrN-44" style="edgeStyle=orthogonalEdgeStyle;rounded=0;orthogonalLoop=1;jettySize=auto;html=1;entryX=0;entryY=0.5;entryDx=0;entryDy=0;" edge="1" parent="Z0J20o8RJ79O66ES7HrN-2" source="Z0J20o8RJ79O66ES7HrN-50" target="Z0J20o8RJ79O66ES7HrN-30">
          <mxGeometry relative="1" as="geometry">
            <Array as="points">
              <mxPoint x="350" y="200" />
            </Array>
          </mxGeometry>
        </mxCell>
        <mxCell id="Z0J20o8RJ79O66ES7HrN-45" style="edgeStyle=orthogonalEdgeStyle;rounded=0;orthogonalLoop=1;jettySize=auto;html=1;exitX=0.5;exitY=1;exitDx=0;exitDy=0;entryX=0;entryY=0.5;entryDx=0;entryDy=0;" edge="1" parent="Z0J20o8RJ79O66ES7HrN-2" source="Z0J20o8RJ79O66ES7HrN-50" target="Z0J20o8RJ79O66ES7HrN-32">
          <mxGeometry relative="1" as="geometry" />
        </mxCell>
        <mxCell id="Z0J20o8RJ79O66ES7HrN-46" style="edgeStyle=orthogonalEdgeStyle;rounded=0;orthogonalLoop=1;jettySize=auto;html=1;exitX=0.5;exitY=1;exitDx=0;exitDy=0;entryX=0;entryY=0.5;entryDx=0;entryDy=0;" edge="1" parent="Z0J20o8RJ79O66ES7HrN-2" source="Z0J20o8RJ79O66ES7HrN-50" target="Z0J20o8RJ79O66ES7HrN-34">
          <mxGeometry relative="1" as="geometry" />
        </mxCell>
        <mxCell id="Z0J20o8RJ79O66ES7HrN-47" style="edgeStyle=orthogonalEdgeStyle;rounded=0;orthogonalLoop=1;jettySize=auto;html=1;exitX=0.5;exitY=1;exitDx=0;exitDy=0;entryX=0;entryY=0.5;entryDx=0;entryDy=0;" edge="1" parent="Z0J20o8RJ79O66ES7HrN-2" source="Z0J20o8RJ79O66ES7HrN-50" target="Z0J20o8RJ79O66ES7HrN-36">
          <mxGeometry relative="1" as="geometry" />
        </mxCell>
        <mxCell id="Z0J20o8RJ79O66ES7HrN-48" style="edgeStyle=orthogonalEdgeStyle;rounded=0;orthogonalLoop=1;jettySize=auto;html=1;exitX=0.5;exitY=1;exitDx=0;exitDy=0;entryX=0;entryY=0.5;entryDx=0;entryDy=0;" edge="1" parent="Z0J20o8RJ79O66ES7HrN-2" source="Z0J20o8RJ79O66ES7HrN-50" target="Z0J20o8RJ79O66ES7HrN-42">
          <mxGeometry relative="1" as="geometry" />
        </mxCell>
        <mxCell id="Z0J20o8RJ79O66ES7HrN-49" style="edgeStyle=orthogonalEdgeStyle;rounded=0;orthogonalLoop=1;jettySize=auto;html=1;entryX=0;entryY=0.5;entryDx=0;entryDy=0;" edge="1" parent="Z0J20o8RJ79O66ES7HrN-2" source="Z0J20o8RJ79O66ES7HrN-50" target="Z0J20o8RJ79O66ES7HrN-71">
          <mxGeometry relative="1" as="geometry" />
        </mxCell>
        <mxCell id="Z0J20o8RJ79O66ES7HrN-50" value="" style="ellipse;whiteSpace=wrap;html=1;aspect=fixed;fillColor=#000000;" vertex="1" parent="Z0J20o8RJ79O66ES7HrN-2">
          <mxGeometry x="340" y="130" width="20" height="20" as="geometry" />
        </mxCell>
        <mxCell id="Z0J20o8RJ79O66ES7HrN-51" value="" style="edgeStyle=orthogonalEdgeStyle;rounded=0;orthogonalLoop=1;jettySize=auto;html=1;" edge="1" parent="Z0J20o8RJ79O66ES7HrN-2" source="Z0J20o8RJ79O66ES7HrN-52" target="Z0J20o8RJ79O66ES7HrN-59">
          <mxGeometry relative="1" as="geometry" />
        </mxCell>
        <mxCell id="Z0J20o8RJ79O66ES7HrN-52" value="click industry type button" style="rounded=1;whiteSpace=wrap;html=1;" vertex="1" parent="Z0J20o8RJ79O66ES7HrN-2">
          <mxGeometry x="690" y="170" width="120" height="60" as="geometry" />
        </mxCell>
        <mxCell id="Z0J20o8RJ79O66ES7HrN-53" value="" style="edgeStyle=orthogonalEdgeStyle;rounded=0;orthogonalLoop=1;jettySize=auto;html=1;" edge="1" parent="Z0J20o8RJ79O66ES7HrN-2" source="Z0J20o8RJ79O66ES7HrN-54" target="Z0J20o8RJ79O66ES7HrN-60">
          <mxGeometry relative="1" as="geometry" />
        </mxCell>
        <mxCell id="Z0J20o8RJ79O66ES7HrN-54" value="click income range button" style="rounded=1;whiteSpace=wrap;html=1;" vertex="1" parent="Z0J20o8RJ79O66ES7HrN-2">
          <mxGeometry x="690" y="260" width="120" height="60" as="geometry" />
        </mxCell>
        <mxCell id="Z0J20o8RJ79O66ES7HrN-55" value="" style="edgeStyle=orthogonalEdgeStyle;rounded=0;orthogonalLoop=1;jettySize=auto;html=1;" edge="1" parent="Z0J20o8RJ79O66ES7HrN-2" source="Z0J20o8RJ79O66ES7HrN-56" target="Z0J20o8RJ79O66ES7HrN-61">
          <mxGeometry relative="1" as="geometry" />
        </mxCell>
        <mxCell id="Z0J20o8RJ79O66ES7HrN-56" value="click ethnicity button" style="rounded=1;whiteSpace=wrap;html=1;" vertex="1" parent="Z0J20o8RJ79O66ES7HrN-2">
          <mxGeometry x="690" y="350" width="120" height="60" as="geometry" />
        </mxCell>
        <mxCell id="Z0J20o8RJ79O66ES7HrN-57" value="" style="edgeStyle=orthogonalEdgeStyle;rounded=0;orthogonalLoop=1;jettySize=auto;html=1;" edge="1" parent="Z0J20o8RJ79O66ES7HrN-2" source="Z0J20o8RJ79O66ES7HrN-58" target="Z0J20o8RJ79O66ES7HrN-62">
          <mxGeometry relative="1" as="geometry" />
        </mxCell>
        <mxCell id="Z0J20o8RJ79O66ES7HrN-58" value="click physical characteristic type button" style="rounded=1;whiteSpace=wrap;html=1;" vertex="1" parent="Z0J20o8RJ79O66ES7HrN-2">
          <mxGeometry x="690" y="440" width="120" height="60" as="geometry" />
        </mxCell>
        <mxCell id="Z0J20o8RJ79O66ES7HrN-59" value="industry type" style="ellipse;whiteSpace=wrap;html=1;aspect=fixed;strokeWidth=10;" vertex="1" parent="Z0J20o8RJ79O66ES7HrN-2">
          <mxGeometry x="840" y="160" width="80" height="80" as="geometry" />
        </mxCell>
        <mxCell id="Z0J20o8RJ79O66ES7HrN-60" value="&lt;font style=&quot;font-size: 11px;&quot;&gt;income range&lt;/font&gt;" style="ellipse;whiteSpace=wrap;html=1;aspect=fixed;strokeWidth=10;" vertex="1" parent="Z0J20o8RJ79O66ES7HrN-2">
          <mxGeometry x="840" y="250" width="80" height="80" as="geometry" />
        </mxCell>
        <mxCell id="Z0J20o8RJ79O66ES7HrN-61" value="ethnicity" style="ellipse;whiteSpace=wrap;html=1;aspect=fixed;strokeWidth=10;" vertex="1" parent="Z0J20o8RJ79O66ES7HrN-2">
          <mxGeometry x="840" y="340" width="80" height="80" as="geometry" />
        </mxCell>
        <mxCell id="Z0J20o8RJ79O66ES7HrN-62" value="&lt;font style=&quot;font-size: 11px;&quot;&gt;physical characteristic type&lt;/font&gt;" style="ellipse;whiteSpace=wrap;html=1;aspect=fixed;strokeWidth=10;" vertex="1" parent="Z0J20o8RJ79O66ES7HrN-2">
          <mxGeometry x="840" y="430" width="80" height="80" as="geometry" />
        </mxCell>
        <mxCell id="Z0J20o8RJ79O66ES7HrN-63" value="" style="edgeStyle=orthogonalEdgeStyle;rounded=0;orthogonalLoop=1;jettySize=auto;html=1;" edge="1" parent="Z0J20o8RJ79O66ES7HrN-2" source="Z0J20o8RJ79O66ES7HrN-64" target="Z0J20o8RJ79O66ES7HrN-65">
          <mxGeometry relative="1" as="geometry" />
        </mxCell>
        <mxCell id="Z0J20o8RJ79O66ES7HrN-64" value="click person name type button" style="rounded=1;whiteSpace=wrap;html=1;" vertex="1" parent="Z0J20o8RJ79O66ES7HrN-2">
          <mxGeometry x="690" y="530" width="120" height="60" as="geometry" />
        </mxCell>
        <mxCell id="Z0J20o8RJ79O66ES7HrN-65" value="person name type" style="ellipse;whiteSpace=wrap;html=1;aspect=fixed;strokeWidth=10;" vertex="1" parent="Z0J20o8RJ79O66ES7HrN-2">
          <mxGeometry x="840" y="520" width="80" height="80" as="geometry" />
        </mxCell>
        <mxCell id="Z0J20o8RJ79O66ES7HrN-66" style="edgeStyle=orthogonalEdgeStyle;rounded=0;orthogonalLoop=1;jettySize=auto;html=1;entryX=0;entryY=0.5;entryDx=0;entryDy=0;" edge="1" parent="Z0J20o8RJ79O66ES7HrN-2" source="Z0J20o8RJ79O66ES7HrN-71" target="Z0J20o8RJ79O66ES7HrN-52">
          <mxGeometry relative="1" as="geometry">
            <Array as="points">
              <mxPoint x="650" y="200" />
            </Array>
          </mxGeometry>
        </mxCell>
        <mxCell id="Z0J20o8RJ79O66ES7HrN-67" style="edgeStyle=orthogonalEdgeStyle;rounded=0;orthogonalLoop=1;jettySize=auto;html=1;exitX=0.5;exitY=1;exitDx=0;exitDy=0;entryX=0;entryY=0.5;entryDx=0;entryDy=0;" edge="1" parent="Z0J20o8RJ79O66ES7HrN-2" source="Z0J20o8RJ79O66ES7HrN-71" target="Z0J20o8RJ79O66ES7HrN-54">
          <mxGeometry relative="1" as="geometry" />
        </mxCell>
        <mxCell id="Z0J20o8RJ79O66ES7HrN-68" style="edgeStyle=orthogonalEdgeStyle;rounded=0;orthogonalLoop=1;jettySize=auto;html=1;exitX=0.5;exitY=1;exitDx=0;exitDy=0;entryX=0;entryY=0.5;entryDx=0;entryDy=0;" edge="1" parent="Z0J20o8RJ79O66ES7HrN-2" source="Z0J20o8RJ79O66ES7HrN-71" target="Z0J20o8RJ79O66ES7HrN-56">
          <mxGeometry relative="1" as="geometry" />
        </mxCell>
        <mxCell id="Z0J20o8RJ79O66ES7HrN-69" style="edgeStyle=orthogonalEdgeStyle;rounded=0;orthogonalLoop=1;jettySize=auto;html=1;exitX=0.5;exitY=1;exitDx=0;exitDy=0;entryX=0;entryY=0.5;entryDx=0;entryDy=0;" edge="1" parent="Z0J20o8RJ79O66ES7HrN-2" source="Z0J20o8RJ79O66ES7HrN-71" target="Z0J20o8RJ79O66ES7HrN-58">
          <mxGeometry relative="1" as="geometry" />
        </mxCell>
        <mxCell id="Z0J20o8RJ79O66ES7HrN-70" style="edgeStyle=orthogonalEdgeStyle;rounded=0;orthogonalLoop=1;jettySize=auto;html=1;exitX=0.5;exitY=1;exitDx=0;exitDy=0;entryX=0;entryY=0.5;entryDx=0;entryDy=0;" edge="1" parent="Z0J20o8RJ79O66ES7HrN-2" source="Z0J20o8RJ79O66ES7HrN-71" target="Z0J20o8RJ79O66ES7HrN-64">
          <mxGeometry relative="1" as="geometry" />
        </mxCell>
        <mxCell id="Z0J20o8RJ79O66ES7HrN-71" value="" style="ellipse;whiteSpace=wrap;html=1;aspect=fixed;fillColor=#000000;" vertex="1" parent="Z0J20o8RJ79O66ES7HrN-2">
          <mxGeometry x="640" y="130" width="20" height="20" as="geometry" />
        </mxCell>
      </root>
    </mxGraphModel>
  </diagram>
  <diagram name="home 3" id="V5y4GQ1baUAxQhcnNH45">
    <mxGraphModel dx="1042" dy="626" grid="1" gridSize="10" guides="1" tooltips="1" connect="1" arrows="1" fold="1" page="1" pageScale="1" pageWidth="850" pageHeight="1100" math="0" shadow="0">
      <root>
        <mxCell id="NC2bGSKP_fauyvue2Sfq-0" />
        <mxCell id="NC2bGSKP_fauyvue2Sfq-1" parent="NC2bGSKP_fauyvue2Sfq-0" />
        <mxCell id="NC2bGSKP_fauyvue2Sfq-2" value="Frontend" style="swimlane;whiteSpace=wrap;html=1;" vertex="1" parent="NC2bGSKP_fauyvue2Sfq-1">
          <mxGeometry x="70" y="140" width="940" height="620" as="geometry" />
        </mxCell>
        <mxCell id="NC2bGSKP_fauyvue2Sfq-3" value="" style="edgeStyle=orthogonalEdgeStyle;rounded=0;orthogonalLoop=1;jettySize=auto;html=1;" edge="1" parent="NC2bGSKP_fauyvue2Sfq-2" source="NC2bGSKP_fauyvue2Sfq-4" target="NC2bGSKP_fauyvue2Sfq-21">
          <mxGeometry relative="1" as="geometry" />
        </mxCell>
        <mxCell id="NC2bGSKP_fauyvue2Sfq-4" value="H1" style="ellipse;whiteSpace=wrap;html=1;aspect=fixed;strokeWidth=10;" vertex="1" parent="NC2bGSKP_fauyvue2Sfq-2">
          <mxGeometry x="180" y="40" width="80" height="80" as="geometry" />
        </mxCell>
        <mxCell id="NC2bGSKP_fauyvue2Sfq-5" value="" style="edgeStyle=orthogonalEdgeStyle;rounded=0;orthogonalLoop=1;jettySize=auto;html=1;" edge="1" parent="NC2bGSKP_fauyvue2Sfq-2" source="NC2bGSKP_fauyvue2Sfq-6" target="NC2bGSKP_fauyvue2Sfq-13">
          <mxGeometry relative="1" as="geometry" />
        </mxCell>
        <mxCell id="NC2bGSKP_fauyvue2Sfq-6" value="click profile button" style="rounded=1;whiteSpace=wrap;html=1;" vertex="1" parent="NC2bGSKP_fauyvue2Sfq-2">
          <mxGeometry x="90" y="170" width="120" height="60" as="geometry" />
        </mxCell>
        <mxCell id="NC2bGSKP_fauyvue2Sfq-7" value="" style="edgeStyle=orthogonalEdgeStyle;rounded=0;orthogonalLoop=1;jettySize=auto;html=1;" edge="1" parent="NC2bGSKP_fauyvue2Sfq-2" source="NC2bGSKP_fauyvue2Sfq-8" target="NC2bGSKP_fauyvue2Sfq-14">
          <mxGeometry relative="1" as="geometry" />
        </mxCell>
        <mxCell id="NC2bGSKP_fauyvue2Sfq-8" value="click setting button" style="rounded=1;whiteSpace=wrap;html=1;" vertex="1" parent="NC2bGSKP_fauyvue2Sfq-2">
          <mxGeometry x="90" y="260" width="120" height="60" as="geometry" />
        </mxCell>
        <mxCell id="NC2bGSKP_fauyvue2Sfq-9" value="" style="edgeStyle=orthogonalEdgeStyle;rounded=0;orthogonalLoop=1;jettySize=auto;html=1;" edge="1" parent="NC2bGSKP_fauyvue2Sfq-2" source="NC2bGSKP_fauyvue2Sfq-10" target="NC2bGSKP_fauyvue2Sfq-15">
          <mxGeometry relative="1" as="geometry" />
        </mxCell>
        <mxCell id="NC2bGSKP_fauyvue2Sfq-10" value="click about button" style="rounded=1;whiteSpace=wrap;html=1;" vertex="1" parent="NC2bGSKP_fauyvue2Sfq-2">
          <mxGeometry x="90" y="350" width="120" height="60" as="geometry" />
        </mxCell>
        <mxCell id="NC2bGSKP_fauyvue2Sfq-11" value="" style="edgeStyle=orthogonalEdgeStyle;rounded=0;orthogonalLoop=1;jettySize=auto;html=1;" edge="1" parent="NC2bGSKP_fauyvue2Sfq-2" source="NC2bGSKP_fauyvue2Sfq-12" target="NC2bGSKP_fauyvue2Sfq-16">
          <mxGeometry relative="1" as="geometry" />
        </mxCell>
        <mxCell id="NC2bGSKP_fauyvue2Sfq-12" value="click database button" style="rounded=1;whiteSpace=wrap;html=1;" vertex="1" parent="NC2bGSKP_fauyvue2Sfq-2">
          <mxGeometry x="90" y="440" width="120" height="60" as="geometry" />
        </mxCell>
        <mxCell id="NC2bGSKP_fauyvue2Sfq-13" value="profile" style="ellipse;whiteSpace=wrap;html=1;aspect=fixed;strokeWidth=10;" vertex="1" parent="NC2bGSKP_fauyvue2Sfq-2">
          <mxGeometry x="240" y="160" width="80" height="80" as="geometry" />
        </mxCell>
        <mxCell id="NC2bGSKP_fauyvue2Sfq-14" value="setting" style="ellipse;whiteSpace=wrap;html=1;aspect=fixed;strokeWidth=10;" vertex="1" parent="NC2bGSKP_fauyvue2Sfq-2">
          <mxGeometry x="240" y="250" width="80" height="80" as="geometry" />
        </mxCell>
        <mxCell id="NC2bGSKP_fauyvue2Sfq-15" value="about" style="ellipse;whiteSpace=wrap;html=1;aspect=fixed;strokeWidth=10;" vertex="1" parent="NC2bGSKP_fauyvue2Sfq-2">
          <mxGeometry x="240" y="340" width="80" height="80" as="geometry" />
        </mxCell>
        <mxCell id="NC2bGSKP_fauyvue2Sfq-16" value="database" style="ellipse;whiteSpace=wrap;html=1;aspect=fixed;strokeWidth=10;" vertex="1" parent="NC2bGSKP_fauyvue2Sfq-2">
          <mxGeometry x="240" y="430" width="80" height="80" as="geometry" />
        </mxCell>
        <mxCell id="NC2bGSKP_fauyvue2Sfq-17" value="" style="edgeStyle=orthogonalEdgeStyle;rounded=0;orthogonalLoop=1;jettySize=auto;html=1;" edge="1" parent="NC2bGSKP_fauyvue2Sfq-2" source="NC2bGSKP_fauyvue2Sfq-18" target="NC2bGSKP_fauyvue2Sfq-19">
          <mxGeometry relative="1" as="geometry" />
        </mxCell>
        <mxCell id="NC2bGSKP_fauyvue2Sfq-18" value="click tutorial button" style="rounded=1;whiteSpace=wrap;html=1;" vertex="1" parent="NC2bGSKP_fauyvue2Sfq-2">
          <mxGeometry x="90" y="530" width="120" height="60" as="geometry" />
        </mxCell>
        <mxCell id="NC2bGSKP_fauyvue2Sfq-19" value="tutorial" style="ellipse;whiteSpace=wrap;html=1;aspect=fixed;strokeWidth=10;" vertex="1" parent="NC2bGSKP_fauyvue2Sfq-2">
          <mxGeometry x="240" y="520" width="80" height="80" as="geometry" />
        </mxCell>
        <mxCell id="NC2bGSKP_fauyvue2Sfq-20" style="edgeStyle=orthogonalEdgeStyle;rounded=0;orthogonalLoop=1;jettySize=auto;html=1;entryX=0.5;entryY=0;entryDx=0;entryDy=0;" edge="1" parent="NC2bGSKP_fauyvue2Sfq-2" source="NC2bGSKP_fauyvue2Sfq-21" target="NC2bGSKP_fauyvue2Sfq-28">
          <mxGeometry relative="1" as="geometry">
            <Array as="points">
              <mxPoint x="50" y="120" />
              <mxPoint x="50" y="120" />
            </Array>
          </mxGeometry>
        </mxCell>
        <mxCell id="NC2bGSKP_fauyvue2Sfq-21" value="render home page GUI" style="rounded=1;whiteSpace=wrap;html=1;" vertex="1" parent="NC2bGSKP_fauyvue2Sfq-2">
          <mxGeometry x="20" y="50" width="120" height="60" as="geometry" />
        </mxCell>
        <mxCell id="NC2bGSKP_fauyvue2Sfq-22" style="edgeStyle=orthogonalEdgeStyle;rounded=0;orthogonalLoop=1;jettySize=auto;html=1;entryX=0;entryY=0.5;entryDx=0;entryDy=0;" edge="1" parent="NC2bGSKP_fauyvue2Sfq-2" source="NC2bGSKP_fauyvue2Sfq-28" target="NC2bGSKP_fauyvue2Sfq-6">
          <mxGeometry relative="1" as="geometry">
            <Array as="points">
              <mxPoint x="50" y="200" />
            </Array>
          </mxGeometry>
        </mxCell>
        <mxCell id="NC2bGSKP_fauyvue2Sfq-23" style="edgeStyle=orthogonalEdgeStyle;rounded=0;orthogonalLoop=1;jettySize=auto;html=1;exitX=0.5;exitY=1;exitDx=0;exitDy=0;entryX=0;entryY=0.5;entryDx=0;entryDy=0;" edge="1" parent="NC2bGSKP_fauyvue2Sfq-2" source="NC2bGSKP_fauyvue2Sfq-28" target="NC2bGSKP_fauyvue2Sfq-8">
          <mxGeometry relative="1" as="geometry" />
        </mxCell>
        <mxCell id="NC2bGSKP_fauyvue2Sfq-24" style="edgeStyle=orthogonalEdgeStyle;rounded=0;orthogonalLoop=1;jettySize=auto;html=1;exitX=0.5;exitY=1;exitDx=0;exitDy=0;entryX=0;entryY=0.5;entryDx=0;entryDy=0;" edge="1" parent="NC2bGSKP_fauyvue2Sfq-2" source="NC2bGSKP_fauyvue2Sfq-28" target="NC2bGSKP_fauyvue2Sfq-10">
          <mxGeometry relative="1" as="geometry" />
        </mxCell>
        <mxCell id="NC2bGSKP_fauyvue2Sfq-25" style="edgeStyle=orthogonalEdgeStyle;rounded=0;orthogonalLoop=1;jettySize=auto;html=1;exitX=0.5;exitY=1;exitDx=0;exitDy=0;entryX=0;entryY=0.5;entryDx=0;entryDy=0;" edge="1" parent="NC2bGSKP_fauyvue2Sfq-2" source="NC2bGSKP_fauyvue2Sfq-28" target="NC2bGSKP_fauyvue2Sfq-12">
          <mxGeometry relative="1" as="geometry" />
        </mxCell>
        <mxCell id="NC2bGSKP_fauyvue2Sfq-26" style="edgeStyle=orthogonalEdgeStyle;rounded=0;orthogonalLoop=1;jettySize=auto;html=1;exitX=0.5;exitY=1;exitDx=0;exitDy=0;entryX=0;entryY=0.5;entryDx=0;entryDy=0;" edge="1" parent="NC2bGSKP_fauyvue2Sfq-2" source="NC2bGSKP_fauyvue2Sfq-28" target="NC2bGSKP_fauyvue2Sfq-18">
          <mxGeometry relative="1" as="geometry" />
        </mxCell>
        <mxCell id="NC2bGSKP_fauyvue2Sfq-27" style="edgeStyle=orthogonalEdgeStyle;rounded=0;orthogonalLoop=1;jettySize=auto;html=1;entryX=0;entryY=0.5;entryDx=0;entryDy=0;" edge="1" parent="NC2bGSKP_fauyvue2Sfq-2" source="NC2bGSKP_fauyvue2Sfq-28" target="NC2bGSKP_fauyvue2Sfq-50">
          <mxGeometry relative="1" as="geometry" />
        </mxCell>
        <mxCell id="NC2bGSKP_fauyvue2Sfq-28" value="" style="ellipse;whiteSpace=wrap;html=1;aspect=fixed;fillColor=#000000;" vertex="1" parent="NC2bGSKP_fauyvue2Sfq-2">
          <mxGeometry x="40" y="130" width="20" height="20" as="geometry" />
        </mxCell>
        <mxCell id="NC2bGSKP_fauyvue2Sfq-29" value="" style="edgeStyle=orthogonalEdgeStyle;rounded=0;orthogonalLoop=1;jettySize=auto;html=1;" edge="1" parent="NC2bGSKP_fauyvue2Sfq-2" source="NC2bGSKP_fauyvue2Sfq-30" target="NC2bGSKP_fauyvue2Sfq-37">
          <mxGeometry relative="1" as="geometry" />
        </mxCell>
        <mxCell id="NC2bGSKP_fauyvue2Sfq-30" value="click profile button" style="rounded=1;whiteSpace=wrap;html=1;" vertex="1" parent="NC2bGSKP_fauyvue2Sfq-2">
          <mxGeometry x="390" y="170" width="120" height="60" as="geometry" />
        </mxCell>
        <mxCell id="NC2bGSKP_fauyvue2Sfq-31" value="" style="edgeStyle=orthogonalEdgeStyle;rounded=0;orthogonalLoop=1;jettySize=auto;html=1;" edge="1" parent="NC2bGSKP_fauyvue2Sfq-2" source="NC2bGSKP_fauyvue2Sfq-32" target="NC2bGSKP_fauyvue2Sfq-38">
          <mxGeometry relative="1" as="geometry" />
        </mxCell>
        <mxCell id="NC2bGSKP_fauyvue2Sfq-32" value="click setting button" style="rounded=1;whiteSpace=wrap;html=1;" vertex="1" parent="NC2bGSKP_fauyvue2Sfq-2">
          <mxGeometry x="390" y="260" width="120" height="60" as="geometry" />
        </mxCell>
        <mxCell id="NC2bGSKP_fauyvue2Sfq-33" value="" style="edgeStyle=orthogonalEdgeStyle;rounded=0;orthogonalLoop=1;jettySize=auto;html=1;" edge="1" parent="NC2bGSKP_fauyvue2Sfq-2" source="NC2bGSKP_fauyvue2Sfq-34" target="NC2bGSKP_fauyvue2Sfq-39">
          <mxGeometry relative="1" as="geometry" />
        </mxCell>
        <mxCell id="NC2bGSKP_fauyvue2Sfq-34" value="click about button" style="rounded=1;whiteSpace=wrap;html=1;" vertex="1" parent="NC2bGSKP_fauyvue2Sfq-2">
          <mxGeometry x="390" y="350" width="120" height="60" as="geometry" />
        </mxCell>
        <mxCell id="NC2bGSKP_fauyvue2Sfq-35" value="" style="edgeStyle=orthogonalEdgeStyle;rounded=0;orthogonalLoop=1;jettySize=auto;html=1;" edge="1" parent="NC2bGSKP_fauyvue2Sfq-2" source="NC2bGSKP_fauyvue2Sfq-36" target="NC2bGSKP_fauyvue2Sfq-40">
          <mxGeometry relative="1" as="geometry" />
        </mxCell>
        <mxCell id="NC2bGSKP_fauyvue2Sfq-36" value="click database button" style="rounded=1;whiteSpace=wrap;html=1;" vertex="1" parent="NC2bGSKP_fauyvue2Sfq-2">
          <mxGeometry x="390" y="440" width="120" height="60" as="geometry" />
        </mxCell>
        <mxCell id="NC2bGSKP_fauyvue2Sfq-37" value="profile" style="ellipse;whiteSpace=wrap;html=1;aspect=fixed;strokeWidth=10;" vertex="1" parent="NC2bGSKP_fauyvue2Sfq-2">
          <mxGeometry x="540" y="160" width="80" height="80" as="geometry" />
        </mxCell>
        <mxCell id="NC2bGSKP_fauyvue2Sfq-38" value="setting" style="ellipse;whiteSpace=wrap;html=1;aspect=fixed;strokeWidth=10;" vertex="1" parent="NC2bGSKP_fauyvue2Sfq-2">
          <mxGeometry x="540" y="250" width="80" height="80" as="geometry" />
        </mxCell>
        <mxCell id="NC2bGSKP_fauyvue2Sfq-39" value="about" style="ellipse;whiteSpace=wrap;html=1;aspect=fixed;strokeWidth=10;" vertex="1" parent="NC2bGSKP_fauyvue2Sfq-2">
          <mxGeometry x="540" y="340" width="80" height="80" as="geometry" />
        </mxCell>
        <mxCell id="NC2bGSKP_fauyvue2Sfq-40" value="database" style="ellipse;whiteSpace=wrap;html=1;aspect=fixed;strokeWidth=10;" vertex="1" parent="NC2bGSKP_fauyvue2Sfq-2">
          <mxGeometry x="540" y="430" width="80" height="80" as="geometry" />
        </mxCell>
        <mxCell id="NC2bGSKP_fauyvue2Sfq-41" value="" style="edgeStyle=orthogonalEdgeStyle;rounded=0;orthogonalLoop=1;jettySize=auto;html=1;" edge="1" parent="NC2bGSKP_fauyvue2Sfq-2" source="NC2bGSKP_fauyvue2Sfq-42" target="NC2bGSKP_fauyvue2Sfq-43">
          <mxGeometry relative="1" as="geometry" />
        </mxCell>
        <mxCell id="NC2bGSKP_fauyvue2Sfq-42" value="click tutorial button" style="rounded=1;whiteSpace=wrap;html=1;" vertex="1" parent="NC2bGSKP_fauyvue2Sfq-2">
          <mxGeometry x="390" y="530" width="120" height="60" as="geometry" />
        </mxCell>
        <mxCell id="NC2bGSKP_fauyvue2Sfq-43" value="tutorial" style="ellipse;whiteSpace=wrap;html=1;aspect=fixed;strokeWidth=10;" vertex="1" parent="NC2bGSKP_fauyvue2Sfq-2">
          <mxGeometry x="540" y="520" width="80" height="80" as="geometry" />
        </mxCell>
        <mxCell id="NC2bGSKP_fauyvue2Sfq-44" style="edgeStyle=orthogonalEdgeStyle;rounded=0;orthogonalLoop=1;jettySize=auto;html=1;entryX=0;entryY=0.5;entryDx=0;entryDy=0;" edge="1" parent="NC2bGSKP_fauyvue2Sfq-2" source="NC2bGSKP_fauyvue2Sfq-50" target="NC2bGSKP_fauyvue2Sfq-30">
          <mxGeometry relative="1" as="geometry">
            <Array as="points">
              <mxPoint x="350" y="200" />
            </Array>
          </mxGeometry>
        </mxCell>
        <mxCell id="NC2bGSKP_fauyvue2Sfq-45" style="edgeStyle=orthogonalEdgeStyle;rounded=0;orthogonalLoop=1;jettySize=auto;html=1;exitX=0.5;exitY=1;exitDx=0;exitDy=0;entryX=0;entryY=0.5;entryDx=0;entryDy=0;" edge="1" parent="NC2bGSKP_fauyvue2Sfq-2" source="NC2bGSKP_fauyvue2Sfq-50" target="NC2bGSKP_fauyvue2Sfq-32">
          <mxGeometry relative="1" as="geometry" />
        </mxCell>
        <mxCell id="NC2bGSKP_fauyvue2Sfq-46" style="edgeStyle=orthogonalEdgeStyle;rounded=0;orthogonalLoop=1;jettySize=auto;html=1;exitX=0.5;exitY=1;exitDx=0;exitDy=0;entryX=0;entryY=0.5;entryDx=0;entryDy=0;" edge="1" parent="NC2bGSKP_fauyvue2Sfq-2" source="NC2bGSKP_fauyvue2Sfq-50" target="NC2bGSKP_fauyvue2Sfq-34">
          <mxGeometry relative="1" as="geometry" />
        </mxCell>
        <mxCell id="NC2bGSKP_fauyvue2Sfq-47" style="edgeStyle=orthogonalEdgeStyle;rounded=0;orthogonalLoop=1;jettySize=auto;html=1;exitX=0.5;exitY=1;exitDx=0;exitDy=0;entryX=0;entryY=0.5;entryDx=0;entryDy=0;" edge="1" parent="NC2bGSKP_fauyvue2Sfq-2" source="NC2bGSKP_fauyvue2Sfq-50" target="NC2bGSKP_fauyvue2Sfq-36">
          <mxGeometry relative="1" as="geometry" />
        </mxCell>
        <mxCell id="NC2bGSKP_fauyvue2Sfq-48" style="edgeStyle=orthogonalEdgeStyle;rounded=0;orthogonalLoop=1;jettySize=auto;html=1;exitX=0.5;exitY=1;exitDx=0;exitDy=0;entryX=0;entryY=0.5;entryDx=0;entryDy=0;" edge="1" parent="NC2bGSKP_fauyvue2Sfq-2" source="NC2bGSKP_fauyvue2Sfq-50" target="NC2bGSKP_fauyvue2Sfq-42">
          <mxGeometry relative="1" as="geometry" />
        </mxCell>
        <mxCell id="NC2bGSKP_fauyvue2Sfq-49" style="edgeStyle=orthogonalEdgeStyle;rounded=0;orthogonalLoop=1;jettySize=auto;html=1;entryX=0;entryY=0.5;entryDx=0;entryDy=0;" edge="1" parent="NC2bGSKP_fauyvue2Sfq-2" source="NC2bGSKP_fauyvue2Sfq-50" target="NC2bGSKP_fauyvue2Sfq-71">
          <mxGeometry relative="1" as="geometry" />
        </mxCell>
        <mxCell id="NC2bGSKP_fauyvue2Sfq-50" value="" style="ellipse;whiteSpace=wrap;html=1;aspect=fixed;fillColor=#000000;" vertex="1" parent="NC2bGSKP_fauyvue2Sfq-2">
          <mxGeometry x="340" y="130" width="20" height="20" as="geometry" />
        </mxCell>
        <mxCell id="NC2bGSKP_fauyvue2Sfq-51" value="" style="edgeStyle=orthogonalEdgeStyle;rounded=0;orthogonalLoop=1;jettySize=auto;html=1;" edge="1" parent="NC2bGSKP_fauyvue2Sfq-2" source="NC2bGSKP_fauyvue2Sfq-52" target="NC2bGSKP_fauyvue2Sfq-59">
          <mxGeometry relative="1" as="geometry" />
        </mxCell>
        <mxCell id="NC2bGSKP_fauyvue2Sfq-52" value="click profile button" style="rounded=1;whiteSpace=wrap;html=1;" vertex="1" parent="NC2bGSKP_fauyvue2Sfq-2">
          <mxGeometry x="690" y="170" width="120" height="60" as="geometry" />
        </mxCell>
        <mxCell id="NC2bGSKP_fauyvue2Sfq-53" value="" style="edgeStyle=orthogonalEdgeStyle;rounded=0;orthogonalLoop=1;jettySize=auto;html=1;" edge="1" parent="NC2bGSKP_fauyvue2Sfq-2" source="NC2bGSKP_fauyvue2Sfq-54" target="NC2bGSKP_fauyvue2Sfq-60">
          <mxGeometry relative="1" as="geometry" />
        </mxCell>
        <mxCell id="NC2bGSKP_fauyvue2Sfq-54" value="click setting button" style="rounded=1;whiteSpace=wrap;html=1;" vertex="1" parent="NC2bGSKP_fauyvue2Sfq-2">
          <mxGeometry x="690" y="260" width="120" height="60" as="geometry" />
        </mxCell>
        <mxCell id="NC2bGSKP_fauyvue2Sfq-55" value="" style="edgeStyle=orthogonalEdgeStyle;rounded=0;orthogonalLoop=1;jettySize=auto;html=1;" edge="1" parent="NC2bGSKP_fauyvue2Sfq-2" source="NC2bGSKP_fauyvue2Sfq-56" target="NC2bGSKP_fauyvue2Sfq-61">
          <mxGeometry relative="1" as="geometry" />
        </mxCell>
        <mxCell id="NC2bGSKP_fauyvue2Sfq-56" value="click about button" style="rounded=1;whiteSpace=wrap;html=1;" vertex="1" parent="NC2bGSKP_fauyvue2Sfq-2">
          <mxGeometry x="690" y="350" width="120" height="60" as="geometry" />
        </mxCell>
        <mxCell id="NC2bGSKP_fauyvue2Sfq-57" value="" style="edgeStyle=orthogonalEdgeStyle;rounded=0;orthogonalLoop=1;jettySize=auto;html=1;" edge="1" parent="NC2bGSKP_fauyvue2Sfq-2" source="NC2bGSKP_fauyvue2Sfq-58" target="NC2bGSKP_fauyvue2Sfq-62">
          <mxGeometry relative="1" as="geometry" />
        </mxCell>
        <mxCell id="NC2bGSKP_fauyvue2Sfq-58" value="click database button" style="rounded=1;whiteSpace=wrap;html=1;" vertex="1" parent="NC2bGSKP_fauyvue2Sfq-2">
          <mxGeometry x="690" y="440" width="120" height="60" as="geometry" />
        </mxCell>
        <mxCell id="NC2bGSKP_fauyvue2Sfq-59" value="profile" style="ellipse;whiteSpace=wrap;html=1;aspect=fixed;strokeWidth=10;" vertex="1" parent="NC2bGSKP_fauyvue2Sfq-2">
          <mxGeometry x="840" y="160" width="80" height="80" as="geometry" />
        </mxCell>
        <mxCell id="NC2bGSKP_fauyvue2Sfq-60" value="setting" style="ellipse;whiteSpace=wrap;html=1;aspect=fixed;strokeWidth=10;" vertex="1" parent="NC2bGSKP_fauyvue2Sfq-2">
          <mxGeometry x="840" y="250" width="80" height="80" as="geometry" />
        </mxCell>
        <mxCell id="NC2bGSKP_fauyvue2Sfq-61" value="about" style="ellipse;whiteSpace=wrap;html=1;aspect=fixed;strokeWidth=10;" vertex="1" parent="NC2bGSKP_fauyvue2Sfq-2">
          <mxGeometry x="840" y="340" width="80" height="80" as="geometry" />
        </mxCell>
        <mxCell id="NC2bGSKP_fauyvue2Sfq-62" value="database" style="ellipse;whiteSpace=wrap;html=1;aspect=fixed;strokeWidth=10;" vertex="1" parent="NC2bGSKP_fauyvue2Sfq-2">
          <mxGeometry x="840" y="430" width="80" height="80" as="geometry" />
        </mxCell>
        <mxCell id="NC2bGSKP_fauyvue2Sfq-63" value="" style="edgeStyle=orthogonalEdgeStyle;rounded=0;orthogonalLoop=1;jettySize=auto;html=1;" edge="1" parent="NC2bGSKP_fauyvue2Sfq-2" source="NC2bGSKP_fauyvue2Sfq-64" target="NC2bGSKP_fauyvue2Sfq-65">
          <mxGeometry relative="1" as="geometry" />
        </mxCell>
        <mxCell id="NC2bGSKP_fauyvue2Sfq-64" value="click tutorial button" style="rounded=1;whiteSpace=wrap;html=1;" vertex="1" parent="NC2bGSKP_fauyvue2Sfq-2">
          <mxGeometry x="690" y="530" width="120" height="60" as="geometry" />
        </mxCell>
        <mxCell id="NC2bGSKP_fauyvue2Sfq-65" value="tutorial" style="ellipse;whiteSpace=wrap;html=1;aspect=fixed;strokeWidth=10;" vertex="1" parent="NC2bGSKP_fauyvue2Sfq-2">
          <mxGeometry x="840" y="520" width="80" height="80" as="geometry" />
        </mxCell>
        <mxCell id="NC2bGSKP_fauyvue2Sfq-66" style="edgeStyle=orthogonalEdgeStyle;rounded=0;orthogonalLoop=1;jettySize=auto;html=1;entryX=0;entryY=0.5;entryDx=0;entryDy=0;" edge="1" parent="NC2bGSKP_fauyvue2Sfq-2" source="NC2bGSKP_fauyvue2Sfq-71" target="NC2bGSKP_fauyvue2Sfq-52">
          <mxGeometry relative="1" as="geometry">
            <Array as="points">
              <mxPoint x="650" y="200" />
            </Array>
          </mxGeometry>
        </mxCell>
        <mxCell id="NC2bGSKP_fauyvue2Sfq-67" style="edgeStyle=orthogonalEdgeStyle;rounded=0;orthogonalLoop=1;jettySize=auto;html=1;exitX=0.5;exitY=1;exitDx=0;exitDy=0;entryX=0;entryY=0.5;entryDx=0;entryDy=0;" edge="1" parent="NC2bGSKP_fauyvue2Sfq-2" source="NC2bGSKP_fauyvue2Sfq-71" target="NC2bGSKP_fauyvue2Sfq-54">
          <mxGeometry relative="1" as="geometry" />
        </mxCell>
        <mxCell id="NC2bGSKP_fauyvue2Sfq-68" style="edgeStyle=orthogonalEdgeStyle;rounded=0;orthogonalLoop=1;jettySize=auto;html=1;exitX=0.5;exitY=1;exitDx=0;exitDy=0;entryX=0;entryY=0.5;entryDx=0;entryDy=0;" edge="1" parent="NC2bGSKP_fauyvue2Sfq-2" source="NC2bGSKP_fauyvue2Sfq-71" target="NC2bGSKP_fauyvue2Sfq-56">
          <mxGeometry relative="1" as="geometry" />
        </mxCell>
        <mxCell id="NC2bGSKP_fauyvue2Sfq-69" style="edgeStyle=orthogonalEdgeStyle;rounded=0;orthogonalLoop=1;jettySize=auto;html=1;exitX=0.5;exitY=1;exitDx=0;exitDy=0;entryX=0;entryY=0.5;entryDx=0;entryDy=0;" edge="1" parent="NC2bGSKP_fauyvue2Sfq-2" source="NC2bGSKP_fauyvue2Sfq-71" target="NC2bGSKP_fauyvue2Sfq-58">
          <mxGeometry relative="1" as="geometry" />
        </mxCell>
        <mxCell id="NC2bGSKP_fauyvue2Sfq-70" style="edgeStyle=orthogonalEdgeStyle;rounded=0;orthogonalLoop=1;jettySize=auto;html=1;exitX=0.5;exitY=1;exitDx=0;exitDy=0;entryX=0;entryY=0.5;entryDx=0;entryDy=0;" edge="1" parent="NC2bGSKP_fauyvue2Sfq-2" source="NC2bGSKP_fauyvue2Sfq-71" target="NC2bGSKP_fauyvue2Sfq-64">
          <mxGeometry relative="1" as="geometry" />
        </mxCell>
        <mxCell id="NC2bGSKP_fauyvue2Sfq-71" value="" style="ellipse;whiteSpace=wrap;html=1;aspect=fixed;fillColor=#000000;" vertex="1" parent="NC2bGSKP_fauyvue2Sfq-2">
          <mxGeometry x="640" y="130" width="20" height="20" as="geometry" />
        </mxCell>
      </root>
    </mxGraphModel>
  </diagram>
  <diagram name="home 4" id="Aty7PFGwhL82rhUnu3oW">
    <mxGraphModel dx="1042" dy="626" grid="1" gridSize="10" guides="1" tooltips="1" connect="1" arrows="1" fold="1" page="1" pageScale="1" pageWidth="850" pageHeight="1100" math="0" shadow="0">
      <root>
        <mxCell id="ot2xz_SRWHgXtQdX_mmO-0" />
        <mxCell id="ot2xz_SRWHgXtQdX_mmO-1" parent="ot2xz_SRWHgXtQdX_mmO-0" />
        <mxCell id="ot2xz_SRWHgXtQdX_mmO-2" value="Frontend" style="swimlane;whiteSpace=wrap;html=1;" vertex="1" parent="ot2xz_SRWHgXtQdX_mmO-1">
          <mxGeometry x="70" y="140" width="940" height="720" as="geometry" />
        </mxCell>
        <mxCell id="ot2xz_SRWHgXtQdX_mmO-3" value="" style="edgeStyle=orthogonalEdgeStyle;rounded=0;orthogonalLoop=1;jettySize=auto;html=1;" edge="1" parent="ot2xz_SRWHgXtQdX_mmO-2" source="ot2xz_SRWHgXtQdX_mmO-4" target="ot2xz_SRWHgXtQdX_mmO-21">
          <mxGeometry relative="1" as="geometry" />
        </mxCell>
        <mxCell id="ot2xz_SRWHgXtQdX_mmO-4" value="H1" style="ellipse;whiteSpace=wrap;html=1;aspect=fixed;strokeWidth=10;" vertex="1" parent="ot2xz_SRWHgXtQdX_mmO-2">
          <mxGeometry x="180" y="40" width="80" height="80" as="geometry" />
        </mxCell>
        <mxCell id="ot2xz_SRWHgXtQdX_mmO-5" value="" style="edgeStyle=orthogonalEdgeStyle;rounded=0;orthogonalLoop=1;jettySize=auto;html=1;" edge="1" parent="ot2xz_SRWHgXtQdX_mmO-2" source="ot2xz_SRWHgXtQdX_mmO-6" target="ot2xz_SRWHgXtQdX_mmO-13">
          <mxGeometry relative="1" as="geometry" />
        </mxCell>
        <mxCell id="ot2xz_SRWHgXtQdX_mmO-6" value="click profile button" style="rounded=1;whiteSpace=wrap;html=1;" vertex="1" parent="ot2xz_SRWHgXtQdX_mmO-2">
          <mxGeometry x="90" y="170" width="120" height="60" as="geometry" />
        </mxCell>
        <mxCell id="ot2xz_SRWHgXtQdX_mmO-7" value="" style="edgeStyle=orthogonalEdgeStyle;rounded=0;orthogonalLoop=1;jettySize=auto;html=1;" edge="1" parent="ot2xz_SRWHgXtQdX_mmO-2" source="ot2xz_SRWHgXtQdX_mmO-8" target="ot2xz_SRWHgXtQdX_mmO-14">
          <mxGeometry relative="1" as="geometry" />
        </mxCell>
        <mxCell id="ot2xz_SRWHgXtQdX_mmO-8" value="click setting button" style="rounded=1;whiteSpace=wrap;html=1;" vertex="1" parent="ot2xz_SRWHgXtQdX_mmO-2">
          <mxGeometry x="90" y="260" width="120" height="60" as="geometry" />
        </mxCell>
        <mxCell id="ot2xz_SRWHgXtQdX_mmO-9" value="" style="edgeStyle=orthogonalEdgeStyle;rounded=0;orthogonalLoop=1;jettySize=auto;html=1;" edge="1" parent="ot2xz_SRWHgXtQdX_mmO-2" source="ot2xz_SRWHgXtQdX_mmO-10" target="ot2xz_SRWHgXtQdX_mmO-15">
          <mxGeometry relative="1" as="geometry" />
        </mxCell>
        <mxCell id="ot2xz_SRWHgXtQdX_mmO-10" value="click about button" style="rounded=1;whiteSpace=wrap;html=1;" vertex="1" parent="ot2xz_SRWHgXtQdX_mmO-2">
          <mxGeometry x="90" y="350" width="120" height="60" as="geometry" />
        </mxCell>
        <mxCell id="ot2xz_SRWHgXtQdX_mmO-11" value="" style="edgeStyle=orthogonalEdgeStyle;rounded=0;orthogonalLoop=1;jettySize=auto;html=1;" edge="1" parent="ot2xz_SRWHgXtQdX_mmO-2" source="ot2xz_SRWHgXtQdX_mmO-12" target="ot2xz_SRWHgXtQdX_mmO-16">
          <mxGeometry relative="1" as="geometry" />
        </mxCell>
        <mxCell id="ot2xz_SRWHgXtQdX_mmO-12" value="click database button" style="rounded=1;whiteSpace=wrap;html=1;" vertex="1" parent="ot2xz_SRWHgXtQdX_mmO-2">
          <mxGeometry x="90" y="440" width="120" height="60" as="geometry" />
        </mxCell>
        <mxCell id="ot2xz_SRWHgXtQdX_mmO-13" value="profile" style="ellipse;whiteSpace=wrap;html=1;aspect=fixed;strokeWidth=10;" vertex="1" parent="ot2xz_SRWHgXtQdX_mmO-2">
          <mxGeometry x="240" y="160" width="80" height="80" as="geometry" />
        </mxCell>
        <mxCell id="ot2xz_SRWHgXtQdX_mmO-14" value="setting" style="ellipse;whiteSpace=wrap;html=1;aspect=fixed;strokeWidth=10;" vertex="1" parent="ot2xz_SRWHgXtQdX_mmO-2">
          <mxGeometry x="240" y="250" width="80" height="80" as="geometry" />
        </mxCell>
        <mxCell id="ot2xz_SRWHgXtQdX_mmO-15" value="about" style="ellipse;whiteSpace=wrap;html=1;aspect=fixed;strokeWidth=10;" vertex="1" parent="ot2xz_SRWHgXtQdX_mmO-2">
          <mxGeometry x="240" y="340" width="80" height="80" as="geometry" />
        </mxCell>
        <mxCell id="ot2xz_SRWHgXtQdX_mmO-16" value="database" style="ellipse;whiteSpace=wrap;html=1;aspect=fixed;strokeWidth=10;" vertex="1" parent="ot2xz_SRWHgXtQdX_mmO-2">
          <mxGeometry x="240" y="430" width="80" height="80" as="geometry" />
        </mxCell>
        <mxCell id="ot2xz_SRWHgXtQdX_mmO-17" value="" style="edgeStyle=orthogonalEdgeStyle;rounded=0;orthogonalLoop=1;jettySize=auto;html=1;" edge="1" parent="ot2xz_SRWHgXtQdX_mmO-2" source="ot2xz_SRWHgXtQdX_mmO-18" target="ot2xz_SRWHgXtQdX_mmO-19">
          <mxGeometry relative="1" as="geometry" />
        </mxCell>
        <mxCell id="ot2xz_SRWHgXtQdX_mmO-18" value="click tutorial button" style="rounded=1;whiteSpace=wrap;html=1;" vertex="1" parent="ot2xz_SRWHgXtQdX_mmO-2">
          <mxGeometry x="90" y="530" width="120" height="60" as="geometry" />
        </mxCell>
        <mxCell id="ot2xz_SRWHgXtQdX_mmO-19" value="tutorial" style="ellipse;whiteSpace=wrap;html=1;aspect=fixed;strokeWidth=10;" vertex="1" parent="ot2xz_SRWHgXtQdX_mmO-2">
          <mxGeometry x="240" y="520" width="80" height="80" as="geometry" />
        </mxCell>
        <mxCell id="ot2xz_SRWHgXtQdX_mmO-20" style="edgeStyle=orthogonalEdgeStyle;rounded=0;orthogonalLoop=1;jettySize=auto;html=1;entryX=0.5;entryY=0;entryDx=0;entryDy=0;" edge="1" parent="ot2xz_SRWHgXtQdX_mmO-2" source="ot2xz_SRWHgXtQdX_mmO-21" target="ot2xz_SRWHgXtQdX_mmO-28">
          <mxGeometry relative="1" as="geometry">
            <Array as="points">
              <mxPoint x="50" y="120" />
              <mxPoint x="50" y="120" />
            </Array>
          </mxGeometry>
        </mxCell>
        <mxCell id="ot2xz_SRWHgXtQdX_mmO-21" value="render home page GUI" style="rounded=1;whiteSpace=wrap;html=1;" vertex="1" parent="ot2xz_SRWHgXtQdX_mmO-2">
          <mxGeometry x="20" y="50" width="120" height="60" as="geometry" />
        </mxCell>
        <mxCell id="ot2xz_SRWHgXtQdX_mmO-22" style="edgeStyle=orthogonalEdgeStyle;rounded=0;orthogonalLoop=1;jettySize=auto;html=1;entryX=0;entryY=0.5;entryDx=0;entryDy=0;" edge="1" parent="ot2xz_SRWHgXtQdX_mmO-2" source="ot2xz_SRWHgXtQdX_mmO-28" target="ot2xz_SRWHgXtQdX_mmO-6">
          <mxGeometry relative="1" as="geometry">
            <Array as="points">
              <mxPoint x="50" y="200" />
            </Array>
          </mxGeometry>
        </mxCell>
        <mxCell id="ot2xz_SRWHgXtQdX_mmO-23" style="edgeStyle=orthogonalEdgeStyle;rounded=0;orthogonalLoop=1;jettySize=auto;html=1;exitX=0.5;exitY=1;exitDx=0;exitDy=0;entryX=0;entryY=0.5;entryDx=0;entryDy=0;" edge="1" parent="ot2xz_SRWHgXtQdX_mmO-2" source="ot2xz_SRWHgXtQdX_mmO-28" target="ot2xz_SRWHgXtQdX_mmO-8">
          <mxGeometry relative="1" as="geometry" />
        </mxCell>
        <mxCell id="ot2xz_SRWHgXtQdX_mmO-24" style="edgeStyle=orthogonalEdgeStyle;rounded=0;orthogonalLoop=1;jettySize=auto;html=1;exitX=0.5;exitY=1;exitDx=0;exitDy=0;entryX=0;entryY=0.5;entryDx=0;entryDy=0;" edge="1" parent="ot2xz_SRWHgXtQdX_mmO-2" source="ot2xz_SRWHgXtQdX_mmO-28" target="ot2xz_SRWHgXtQdX_mmO-10">
          <mxGeometry relative="1" as="geometry" />
        </mxCell>
        <mxCell id="ot2xz_SRWHgXtQdX_mmO-25" style="edgeStyle=orthogonalEdgeStyle;rounded=0;orthogonalLoop=1;jettySize=auto;html=1;exitX=0.5;exitY=1;exitDx=0;exitDy=0;entryX=0;entryY=0.5;entryDx=0;entryDy=0;" edge="1" parent="ot2xz_SRWHgXtQdX_mmO-2" source="ot2xz_SRWHgXtQdX_mmO-28" target="ot2xz_SRWHgXtQdX_mmO-12">
          <mxGeometry relative="1" as="geometry" />
        </mxCell>
        <mxCell id="ot2xz_SRWHgXtQdX_mmO-26" style="edgeStyle=orthogonalEdgeStyle;rounded=0;orthogonalLoop=1;jettySize=auto;html=1;exitX=0.5;exitY=1;exitDx=0;exitDy=0;entryX=0;entryY=0.5;entryDx=0;entryDy=0;" edge="1" parent="ot2xz_SRWHgXtQdX_mmO-2" source="ot2xz_SRWHgXtQdX_mmO-28" target="ot2xz_SRWHgXtQdX_mmO-18">
          <mxGeometry relative="1" as="geometry" />
        </mxCell>
        <mxCell id="ot2xz_SRWHgXtQdX_mmO-27" style="edgeStyle=orthogonalEdgeStyle;rounded=0;orthogonalLoop=1;jettySize=auto;html=1;entryX=0;entryY=0.5;entryDx=0;entryDy=0;" edge="1" parent="ot2xz_SRWHgXtQdX_mmO-2" source="ot2xz_SRWHgXtQdX_mmO-28" target="ot2xz_SRWHgXtQdX_mmO-50">
          <mxGeometry relative="1" as="geometry" />
        </mxCell>
        <mxCell id="ot2xz_SRWHgXtQdX_mmO-28" value="" style="ellipse;whiteSpace=wrap;html=1;aspect=fixed;fillColor=#000000;" vertex="1" parent="ot2xz_SRWHgXtQdX_mmO-2">
          <mxGeometry x="40" y="130" width="20" height="20" as="geometry" />
        </mxCell>
        <mxCell id="ot2xz_SRWHgXtQdX_mmO-29" value="" style="edgeStyle=orthogonalEdgeStyle;rounded=0;orthogonalLoop=1;jettySize=auto;html=1;" edge="1" parent="ot2xz_SRWHgXtQdX_mmO-2" source="ot2xz_SRWHgXtQdX_mmO-30" target="ot2xz_SRWHgXtQdX_mmO-37">
          <mxGeometry relative="1" as="geometry" />
        </mxCell>
        <mxCell id="ot2xz_SRWHgXtQdX_mmO-30" value="click profile button" style="rounded=1;whiteSpace=wrap;html=1;" vertex="1" parent="ot2xz_SRWHgXtQdX_mmO-2">
          <mxGeometry x="390" y="170" width="120" height="60" as="geometry" />
        </mxCell>
        <mxCell id="ot2xz_SRWHgXtQdX_mmO-31" value="" style="edgeStyle=orthogonalEdgeStyle;rounded=0;orthogonalLoop=1;jettySize=auto;html=1;" edge="1" parent="ot2xz_SRWHgXtQdX_mmO-2" source="ot2xz_SRWHgXtQdX_mmO-32" target="ot2xz_SRWHgXtQdX_mmO-38">
          <mxGeometry relative="1" as="geometry" />
        </mxCell>
        <mxCell id="ot2xz_SRWHgXtQdX_mmO-32" value="click setting button" style="rounded=1;whiteSpace=wrap;html=1;" vertex="1" parent="ot2xz_SRWHgXtQdX_mmO-2">
          <mxGeometry x="390" y="260" width="120" height="60" as="geometry" />
        </mxCell>
        <mxCell id="ot2xz_SRWHgXtQdX_mmO-33" value="" style="edgeStyle=orthogonalEdgeStyle;rounded=0;orthogonalLoop=1;jettySize=auto;html=1;" edge="1" parent="ot2xz_SRWHgXtQdX_mmO-2" source="ot2xz_SRWHgXtQdX_mmO-34" target="ot2xz_SRWHgXtQdX_mmO-39">
          <mxGeometry relative="1" as="geometry" />
        </mxCell>
        <mxCell id="ot2xz_SRWHgXtQdX_mmO-34" value="click about button" style="rounded=1;whiteSpace=wrap;html=1;" vertex="1" parent="ot2xz_SRWHgXtQdX_mmO-2">
          <mxGeometry x="390" y="350" width="120" height="60" as="geometry" />
        </mxCell>
        <mxCell id="ot2xz_SRWHgXtQdX_mmO-35" value="" style="edgeStyle=orthogonalEdgeStyle;rounded=0;orthogonalLoop=1;jettySize=auto;html=1;" edge="1" parent="ot2xz_SRWHgXtQdX_mmO-2" source="ot2xz_SRWHgXtQdX_mmO-36" target="ot2xz_SRWHgXtQdX_mmO-40">
          <mxGeometry relative="1" as="geometry" />
        </mxCell>
        <mxCell id="ot2xz_SRWHgXtQdX_mmO-36" value="click database button" style="rounded=1;whiteSpace=wrap;html=1;" vertex="1" parent="ot2xz_SRWHgXtQdX_mmO-2">
          <mxGeometry x="390" y="440" width="120" height="60" as="geometry" />
        </mxCell>
        <mxCell id="ot2xz_SRWHgXtQdX_mmO-37" value="profile" style="ellipse;whiteSpace=wrap;html=1;aspect=fixed;strokeWidth=10;" vertex="1" parent="ot2xz_SRWHgXtQdX_mmO-2">
          <mxGeometry x="540" y="160" width="80" height="80" as="geometry" />
        </mxCell>
        <mxCell id="ot2xz_SRWHgXtQdX_mmO-38" value="setting" style="ellipse;whiteSpace=wrap;html=1;aspect=fixed;strokeWidth=10;" vertex="1" parent="ot2xz_SRWHgXtQdX_mmO-2">
          <mxGeometry x="540" y="250" width="80" height="80" as="geometry" />
        </mxCell>
        <mxCell id="ot2xz_SRWHgXtQdX_mmO-39" value="about" style="ellipse;whiteSpace=wrap;html=1;aspect=fixed;strokeWidth=10;" vertex="1" parent="ot2xz_SRWHgXtQdX_mmO-2">
          <mxGeometry x="540" y="340" width="80" height="80" as="geometry" />
        </mxCell>
        <mxCell id="ot2xz_SRWHgXtQdX_mmO-40" value="database" style="ellipse;whiteSpace=wrap;html=1;aspect=fixed;strokeWidth=10;" vertex="1" parent="ot2xz_SRWHgXtQdX_mmO-2">
          <mxGeometry x="540" y="430" width="80" height="80" as="geometry" />
        </mxCell>
        <mxCell id="ot2xz_SRWHgXtQdX_mmO-41" value="" style="edgeStyle=orthogonalEdgeStyle;rounded=0;orthogonalLoop=1;jettySize=auto;html=1;" edge="1" parent="ot2xz_SRWHgXtQdX_mmO-2" source="ot2xz_SRWHgXtQdX_mmO-42" target="ot2xz_SRWHgXtQdX_mmO-43">
          <mxGeometry relative="1" as="geometry" />
        </mxCell>
        <mxCell id="ot2xz_SRWHgXtQdX_mmO-42" value="click tutorial button" style="rounded=1;whiteSpace=wrap;html=1;" vertex="1" parent="ot2xz_SRWHgXtQdX_mmO-2">
          <mxGeometry x="390" y="530" width="120" height="60" as="geometry" />
        </mxCell>
        <mxCell id="ot2xz_SRWHgXtQdX_mmO-43" value="tutorial" style="ellipse;whiteSpace=wrap;html=1;aspect=fixed;strokeWidth=10;" vertex="1" parent="ot2xz_SRWHgXtQdX_mmO-2">
          <mxGeometry x="540" y="520" width="80" height="80" as="geometry" />
        </mxCell>
        <mxCell id="ot2xz_SRWHgXtQdX_mmO-44" style="edgeStyle=orthogonalEdgeStyle;rounded=0;orthogonalLoop=1;jettySize=auto;html=1;entryX=0;entryY=0.5;entryDx=0;entryDy=0;" edge="1" parent="ot2xz_SRWHgXtQdX_mmO-2" source="ot2xz_SRWHgXtQdX_mmO-50" target="ot2xz_SRWHgXtQdX_mmO-30">
          <mxGeometry relative="1" as="geometry">
            <Array as="points">
              <mxPoint x="350" y="200" />
            </Array>
          </mxGeometry>
        </mxCell>
        <mxCell id="ot2xz_SRWHgXtQdX_mmO-45" style="edgeStyle=orthogonalEdgeStyle;rounded=0;orthogonalLoop=1;jettySize=auto;html=1;exitX=0.5;exitY=1;exitDx=0;exitDy=0;entryX=0;entryY=0.5;entryDx=0;entryDy=0;" edge="1" parent="ot2xz_SRWHgXtQdX_mmO-2" source="ot2xz_SRWHgXtQdX_mmO-50" target="ot2xz_SRWHgXtQdX_mmO-32">
          <mxGeometry relative="1" as="geometry" />
        </mxCell>
        <mxCell id="ot2xz_SRWHgXtQdX_mmO-46" style="edgeStyle=orthogonalEdgeStyle;rounded=0;orthogonalLoop=1;jettySize=auto;html=1;exitX=0.5;exitY=1;exitDx=0;exitDy=0;entryX=0;entryY=0.5;entryDx=0;entryDy=0;" edge="1" parent="ot2xz_SRWHgXtQdX_mmO-2" source="ot2xz_SRWHgXtQdX_mmO-50" target="ot2xz_SRWHgXtQdX_mmO-34">
          <mxGeometry relative="1" as="geometry" />
        </mxCell>
        <mxCell id="ot2xz_SRWHgXtQdX_mmO-47" style="edgeStyle=orthogonalEdgeStyle;rounded=0;orthogonalLoop=1;jettySize=auto;html=1;exitX=0.5;exitY=1;exitDx=0;exitDy=0;entryX=0;entryY=0.5;entryDx=0;entryDy=0;" edge="1" parent="ot2xz_SRWHgXtQdX_mmO-2" source="ot2xz_SRWHgXtQdX_mmO-50" target="ot2xz_SRWHgXtQdX_mmO-36">
          <mxGeometry relative="1" as="geometry" />
        </mxCell>
        <mxCell id="ot2xz_SRWHgXtQdX_mmO-48" style="edgeStyle=orthogonalEdgeStyle;rounded=0;orthogonalLoop=1;jettySize=auto;html=1;exitX=0.5;exitY=1;exitDx=0;exitDy=0;entryX=0;entryY=0.5;entryDx=0;entryDy=0;" edge="1" parent="ot2xz_SRWHgXtQdX_mmO-2" source="ot2xz_SRWHgXtQdX_mmO-50" target="ot2xz_SRWHgXtQdX_mmO-42">
          <mxGeometry relative="1" as="geometry" />
        </mxCell>
        <mxCell id="ot2xz_SRWHgXtQdX_mmO-49" style="edgeStyle=orthogonalEdgeStyle;rounded=0;orthogonalLoop=1;jettySize=auto;html=1;entryX=0;entryY=0.5;entryDx=0;entryDy=0;" edge="1" parent="ot2xz_SRWHgXtQdX_mmO-2" source="ot2xz_SRWHgXtQdX_mmO-50" target="ot2xz_SRWHgXtQdX_mmO-71">
          <mxGeometry relative="1" as="geometry" />
        </mxCell>
        <mxCell id="ot2xz_SRWHgXtQdX_mmO-50" value="" style="ellipse;whiteSpace=wrap;html=1;aspect=fixed;fillColor=#000000;" vertex="1" parent="ot2xz_SRWHgXtQdX_mmO-2">
          <mxGeometry x="340" y="130" width="20" height="20" as="geometry" />
        </mxCell>
        <mxCell id="ot2xz_SRWHgXtQdX_mmO-51" value="" style="edgeStyle=orthogonalEdgeStyle;rounded=0;orthogonalLoop=1;jettySize=auto;html=1;" edge="1" parent="ot2xz_SRWHgXtQdX_mmO-2" source="ot2xz_SRWHgXtQdX_mmO-52" target="ot2xz_SRWHgXtQdX_mmO-59">
          <mxGeometry relative="1" as="geometry" />
        </mxCell>
        <mxCell id="ot2xz_SRWHgXtQdX_mmO-52" value="click profile button" style="rounded=1;whiteSpace=wrap;html=1;" vertex="1" parent="ot2xz_SRWHgXtQdX_mmO-2">
          <mxGeometry x="690" y="170" width="120" height="60" as="geometry" />
        </mxCell>
        <mxCell id="ot2xz_SRWHgXtQdX_mmO-53" value="" style="edgeStyle=orthogonalEdgeStyle;rounded=0;orthogonalLoop=1;jettySize=auto;html=1;" edge="1" parent="ot2xz_SRWHgXtQdX_mmO-2" source="ot2xz_SRWHgXtQdX_mmO-54" target="ot2xz_SRWHgXtQdX_mmO-60">
          <mxGeometry relative="1" as="geometry" />
        </mxCell>
        <mxCell id="ot2xz_SRWHgXtQdX_mmO-54" value="click setting button" style="rounded=1;whiteSpace=wrap;html=1;" vertex="1" parent="ot2xz_SRWHgXtQdX_mmO-2">
          <mxGeometry x="690" y="260" width="120" height="60" as="geometry" />
        </mxCell>
        <mxCell id="ot2xz_SRWHgXtQdX_mmO-55" value="" style="edgeStyle=orthogonalEdgeStyle;rounded=0;orthogonalLoop=1;jettySize=auto;html=1;" edge="1" parent="ot2xz_SRWHgXtQdX_mmO-2" source="ot2xz_SRWHgXtQdX_mmO-56" target="ot2xz_SRWHgXtQdX_mmO-61">
          <mxGeometry relative="1" as="geometry" />
        </mxCell>
        <mxCell id="ot2xz_SRWHgXtQdX_mmO-56" value="click about button" style="rounded=1;whiteSpace=wrap;html=1;" vertex="1" parent="ot2xz_SRWHgXtQdX_mmO-2">
          <mxGeometry x="690" y="350" width="120" height="60" as="geometry" />
        </mxCell>
        <mxCell id="ot2xz_SRWHgXtQdX_mmO-57" value="" style="edgeStyle=orthogonalEdgeStyle;rounded=0;orthogonalLoop=1;jettySize=auto;html=1;" edge="1" parent="ot2xz_SRWHgXtQdX_mmO-2" source="ot2xz_SRWHgXtQdX_mmO-58" target="ot2xz_SRWHgXtQdX_mmO-62">
          <mxGeometry relative="1" as="geometry" />
        </mxCell>
        <mxCell id="ot2xz_SRWHgXtQdX_mmO-58" value="click database button" style="rounded=1;whiteSpace=wrap;html=1;" vertex="1" parent="ot2xz_SRWHgXtQdX_mmO-2">
          <mxGeometry x="690" y="440" width="120" height="60" as="geometry" />
        </mxCell>
        <mxCell id="ot2xz_SRWHgXtQdX_mmO-59" value="profile" style="ellipse;whiteSpace=wrap;html=1;aspect=fixed;strokeWidth=10;" vertex="1" parent="ot2xz_SRWHgXtQdX_mmO-2">
          <mxGeometry x="840" y="160" width="80" height="80" as="geometry" />
        </mxCell>
        <mxCell id="ot2xz_SRWHgXtQdX_mmO-60" value="setting" style="ellipse;whiteSpace=wrap;html=1;aspect=fixed;strokeWidth=10;" vertex="1" parent="ot2xz_SRWHgXtQdX_mmO-2">
          <mxGeometry x="840" y="250" width="80" height="80" as="geometry" />
        </mxCell>
        <mxCell id="ot2xz_SRWHgXtQdX_mmO-61" value="about" style="ellipse;whiteSpace=wrap;html=1;aspect=fixed;strokeWidth=10;" vertex="1" parent="ot2xz_SRWHgXtQdX_mmO-2">
          <mxGeometry x="840" y="340" width="80" height="80" as="geometry" />
        </mxCell>
        <mxCell id="ot2xz_SRWHgXtQdX_mmO-62" value="database" style="ellipse;whiteSpace=wrap;html=1;aspect=fixed;strokeWidth=10;" vertex="1" parent="ot2xz_SRWHgXtQdX_mmO-2">
          <mxGeometry x="840" y="430" width="80" height="80" as="geometry" />
        </mxCell>
        <mxCell id="ot2xz_SRWHgXtQdX_mmO-63" value="" style="edgeStyle=orthogonalEdgeStyle;rounded=0;orthogonalLoop=1;jettySize=auto;html=1;" edge="1" parent="ot2xz_SRWHgXtQdX_mmO-2" source="ot2xz_SRWHgXtQdX_mmO-64" target="ot2xz_SRWHgXtQdX_mmO-65">
          <mxGeometry relative="1" as="geometry" />
        </mxCell>
        <mxCell id="ot2xz_SRWHgXtQdX_mmO-64" value="click tutorial button" style="rounded=1;whiteSpace=wrap;html=1;" vertex="1" parent="ot2xz_SRWHgXtQdX_mmO-2">
          <mxGeometry x="690" y="530" width="120" height="60" as="geometry" />
        </mxCell>
        <mxCell id="ot2xz_SRWHgXtQdX_mmO-65" value="tutorial" style="ellipse;whiteSpace=wrap;html=1;aspect=fixed;strokeWidth=10;" vertex="1" parent="ot2xz_SRWHgXtQdX_mmO-2">
          <mxGeometry x="840" y="520" width="80" height="80" as="geometry" />
        </mxCell>
        <mxCell id="ot2xz_SRWHgXtQdX_mmO-66" style="edgeStyle=orthogonalEdgeStyle;rounded=0;orthogonalLoop=1;jettySize=auto;html=1;entryX=0;entryY=0.5;entryDx=0;entryDy=0;" edge="1" parent="ot2xz_SRWHgXtQdX_mmO-2" source="ot2xz_SRWHgXtQdX_mmO-71" target="ot2xz_SRWHgXtQdX_mmO-52">
          <mxGeometry relative="1" as="geometry">
            <Array as="points">
              <mxPoint x="650" y="200" />
            </Array>
          </mxGeometry>
        </mxCell>
        <mxCell id="ot2xz_SRWHgXtQdX_mmO-67" style="edgeStyle=orthogonalEdgeStyle;rounded=0;orthogonalLoop=1;jettySize=auto;html=1;exitX=0.5;exitY=1;exitDx=0;exitDy=0;entryX=0;entryY=0.5;entryDx=0;entryDy=0;" edge="1" parent="ot2xz_SRWHgXtQdX_mmO-2" source="ot2xz_SRWHgXtQdX_mmO-71" target="ot2xz_SRWHgXtQdX_mmO-54">
          <mxGeometry relative="1" as="geometry" />
        </mxCell>
        <mxCell id="ot2xz_SRWHgXtQdX_mmO-68" style="edgeStyle=orthogonalEdgeStyle;rounded=0;orthogonalLoop=1;jettySize=auto;html=1;exitX=0.5;exitY=1;exitDx=0;exitDy=0;entryX=0;entryY=0.5;entryDx=0;entryDy=0;" edge="1" parent="ot2xz_SRWHgXtQdX_mmO-2" source="ot2xz_SRWHgXtQdX_mmO-71" target="ot2xz_SRWHgXtQdX_mmO-56">
          <mxGeometry relative="1" as="geometry" />
        </mxCell>
        <mxCell id="ot2xz_SRWHgXtQdX_mmO-69" style="edgeStyle=orthogonalEdgeStyle;rounded=0;orthogonalLoop=1;jettySize=auto;html=1;exitX=0.5;exitY=1;exitDx=0;exitDy=0;entryX=0;entryY=0.5;entryDx=0;entryDy=0;" edge="1" parent="ot2xz_SRWHgXtQdX_mmO-2" source="ot2xz_SRWHgXtQdX_mmO-71" target="ot2xz_SRWHgXtQdX_mmO-58">
          <mxGeometry relative="1" as="geometry" />
        </mxCell>
        <mxCell id="ot2xz_SRWHgXtQdX_mmO-70" style="edgeStyle=orthogonalEdgeStyle;rounded=0;orthogonalLoop=1;jettySize=auto;html=1;exitX=0.5;exitY=1;exitDx=0;exitDy=0;entryX=0;entryY=0.5;entryDx=0;entryDy=0;" edge="1" parent="ot2xz_SRWHgXtQdX_mmO-2" source="ot2xz_SRWHgXtQdX_mmO-71" target="ot2xz_SRWHgXtQdX_mmO-64">
          <mxGeometry relative="1" as="geometry" />
        </mxCell>
        <mxCell id="ot2xz_SRWHgXtQdX_mmO-71" value="" style="ellipse;whiteSpace=wrap;html=1;aspect=fixed;fillColor=#000000;" vertex="1" parent="ot2xz_SRWHgXtQdX_mmO-2">
          <mxGeometry x="640" y="130" width="20" height="20" as="geometry" />
        </mxCell>
      </root>
    </mxGraphModel>
  </diagram>
  <diagram id="GwuLyTvlgKMcXfaeZkvM" name="mold">
    <mxGraphModel dx="1042" dy="626" grid="1" gridSize="10" guides="1" tooltips="1" connect="1" arrows="1" fold="1" page="1" pageScale="1" pageWidth="850" pageHeight="1100" math="0" shadow="0">
      <root>
        <mxCell id="0" />
        <mxCell id="1" parent="0" />
        <mxCell id="SQbH1HXH144yrd7LpDEC-1" value="Frontend" style="swimlane;whiteSpace=wrap;html=1;" parent="1" vertex="1">
          <mxGeometry x="70" y="110" width="350" height="720" as="geometry" />
        </mxCell>
        <mxCell id="SQbH1HXH144yrd7LpDEC-13" value="Backend" style="swimlane;whiteSpace=wrap;html=1;" parent="1" vertex="1">
          <mxGeometry x="420" y="110" width="350" height="720" as="geometry" />
        </mxCell>
        <mxCell id="SQbH1HXH144yrd7LpDEC-14" value="Database" style="swimlane;whiteSpace=wrap;html=1;startSize=23;" parent="1" vertex="1">
          <mxGeometry x="770" y="110" width="350" height="720" as="geometry" />
        </mxCell>
      </root>
    </mxGraphModel>
  </diagram>
</mxfile>
